<?xml version="1.0" standalone="no"?>
<!DOCTYPE svg PUBLIC "-//W3C//DTD SVG 1.1//EN" "http://www.w3.org/Graphics/SVG/1.1/DTD/svg11.dtd" >
<svg xmlns="http://www.w3.org/2000/svg">
<metadata>Generated by IcoMoon</metadata>
<defs>
<font id="icomoon" horiz-adv-x="1024">
<font-face units-per-em="1024" ascent="960" descent="-64" />
<missing-glyph horiz-adv-x="1024" />
<glyph unicode="&#x20;" horiz-adv-x="512" d="" />
<glyph unicode="&#xe900;" glyph-name="Maill" horiz-adv-x="1427" d="M717.336-48.105c-178.988-0.058-357.977 2.304-536.907-0.979-90.473-1.67-149.963 66.286-150.078 149.042-0.346 228.746-0.691 457.491 0.173 686.237 0.403 93.41 57.993 152.267 150.942 152.497 355.846 0.921 711.692 1.037 1067.48-0.058 97.038-0.288 154.052-58.108 154.57-155.722 1.209-227.709 0.979-455.361 0.058-683.070-0.403-90.992-61.39-150.539-152.497-148.869-177.837 3.225-355.788 0.979-533.74 0.921zM192.349 853.517c-1.555-2.419-3.11-4.838-4.607-7.256 21.942-21.193 44.344-41.868 65.71-63.636 140.346-142.765 285.644-280.576 422.592-426.739 36.742-39.218 40.716-38.182 77.17-1.44 156.471 158.026 313.23 315.706 469.873 473.559 5.874 5.932 16.125 11.748 13.879 19.926-3.283 11.979-16.183 5.529-24.821 7.141-4.089 0.806-8.466 0.23-12.67 0.23-322.041 0-644.139-0.058-966.18-0.173-13.649 0.115-27.297-0.979-40.946-1.613zM255.352 33.499c16.528-1.094 24.764-2.131 32.941-2.131 281.843-0.058 563.687-0.058 845.53 0 4.262 0 8.581-0.403 12.67 0.288 4.953 0.864 11.748 1.152 14.282 4.377 5.241 6.68-1.843 11.633-6.047 15.722-19.753 19.12-40.082 37.721-59.893 56.841-74.694 72.045-149.445 143.974-223.62 216.479-14.513 14.225-24.13 14.973-38.758-1.152-27.643-30.522-57.59-59.029-87.421-87.479-23.497-22.46-38.873-21.308-62.024 1.958-29.889 30.062-60.469 59.432-89.552 90.243-15.492 16.413-27.528 19.12-44.344 1.555-33.632-35.13-69.107-68.474-103.373-103.085-61.736-62.427-123.126-125.2-190.391-193.616zM1320.356 441.406c0 109.017 0.115 218.034-0.23 326.994-0.058 10.078 5.125 24.476-5.413 29.255-13.073 5.874-19.408-9.502-27.067-17.104-118.231-118.059-235.829-236.808-354.579-354.349-17.968-17.795-13.937-28.161 1.613-43.653 60.584-60.411 123.76-118.231 182.098-181.004 46.014-49.527 95.080-96.232 143.456-143.571 21.826-21.366 37.664-17.622 51.024 10.193 8.523 17.738 9.214 36.685 9.157 55.862-0.115 105.734-0.058 211.526-0.058 317.376zM114.315 432.94c0-106.886-0.058-213.772 0.115-320.659 0-11.576-0.288-23.612 2.534-34.669 8.35-32.020 27.585-38.355 51.946-16.183 30.407 27.758 56.726 60.008 86.557 87.939 81.029 75.788 157.277 156.413 237.211 233.18 18.313 17.622 18.832 28.161 1.094 45.784-117.252 116.216-233.698 233.295-350.548 349.857-6.335 6.335-12.151 18.256-22.575 13.937-10.481-4.319-6.162-16.874-6.162-25.858-0.346-111.090-0.23-222.181-0.173-333.328z" />
<glyph unicode="&#xe901;" glyph-name="Webb" horiz-adv-x="1028" d="M1000.561 443.594c-1.728-272.399-224.714-490.605-499.532-488.705-268.252 1.843-485.941 226.673-484.098 499.993 1.785 267.676 227.248 485.365 500.626 483.407 264.797-1.843 484.674-227.076 483.004-494.694zM625.365 473.311c24.591 0 49.181 0.173 73.772-0.058 11.748-0.115 17.68 4.434 16.067 16.874-6.162 48.087-13.303 95.887-30.177 141.728-4.838 13.13-12.324 17.565-26.146 16.413-34.611-2.879-69.395-2.822-103.949-0.115-14.858 1.152-19.638-4.665-19.58-18.141 0.173-45.553 0.403-91.107-0.173-136.66-0.173-15.146 6.162-20.559 20.79-20.156 23.093 0.633 46.244 0.173 69.395 0.115zM389.248 473.368v-0.115c23.9 0 47.799 0.403 71.641-0.173 14.109-0.346 21.596 3.916 21.366 19.58-0.518 46.302-0.461 92.662 0 138.964 0.115 13.418-5.183 18.198-18.256 16.816-35.36-3.628-70.893-2.361-106.253-1.037-15.607 0.576-21.596-5.356-26.376-18.832-15.837-44.69-23.669-90.819-28.795-137.697-1.325-12.209 2.649-17.68 15.031-17.622 23.9 0.288 47.799 0.115 71.641 0.115zM535.468 335.556c-0.058 0-0.058 0-0.115 0 0-22.402 0.518-44.805-0.173-67.207-0.518-15.664 5.471-22.287 21.481-21.999 32.538 0.633 65.076 1.094 97.557-0.173 19.35-0.749 29.198 7.199 34.496 24.994 12.9 43.019 22.23 86.672 26.203 131.477 1.094 12.439-3.167 17.392-15.261 17.334-49.124-0.115-98.305-0.173-147.429 0-11.921 0.058-16.989-5.471-16.816-17.219 0.23-22.402 0.058-44.805 0.058-67.207zM392.012 420.040c0 0 0-0.058 0 0-24.591-0.058-49.124-0.23-73.715 0-11.806 0.115-17.45-4.607-16.067-17.047 5.241-46.763 13.246-92.834 28.91-137.409 4.434-12.555 11.288-19.293 25.051-19.12 35.418 0.346 70.835 0.518 106.195 0.058 15.376-0.173 19.984 7.141 19.868 21.308-0.403 44.056-0.518 88.17 0 132.226 0.173 15.204-6.392 20.444-20.905 20.099-23.036-0.576-46.187-0.115-69.338-0.115zM845.818 473.368c20.963 0 41.925 0.058 62.888 0 10.596-0.058 16.24 3.743 14.743 15.607-6.277 49.066-18.083 96.405-41.004 140.691-5.989 11.576-14.109 16.355-26.952 18.026-36.109 4.665-72.102-3.455-108.211 0.691-15.895 1.843-9.79-9.848-7.487-17.68 13.591-45.841 24.072-92.258 26.261-140.173 0.633-13.418 6.796-17.45 19.005-17.219 20.272 0.288 40.543 0 60.757 0.058zM171.79 473.311c20.272 0 40.543 0.115 60.815-0.058 10.769-0.115 18.026 2.649 18.544 15.492 2.131 48.721 12.382 96.117 26.837 142.477 4.319 13.821 0.23 16.067-12.497 15.837-33.287-0.576-66.689-1.382-99.86 0.576-15.952 0.979-24.13-4.722-30.753-17.622-22.863-44.402-34.381-91.913-40.831-141.037-1.555-11.806 4.089-15.722 14.743-15.722 21.020 0.173 41.983 0.115 63.003 0.058zM173.057 419.983c-20.963 0-41.925-0.115-62.888 0.058-11.288 0.058-17.738-3.34-16.125-16.528 6.22-49.93 19.235-97.672 42.156-142.649 5.125-10.021 11.921-15.434 23.727-15.204 33.229 0.633 66.458 1.209 99.688 0.749 16.24-0.23 22.402 3.686 16.874 21.193-13.937 44.229-23.151 89.494-25.339 135.911-0.576 12.094-5.932 16.701-17.45 16.528-20.156-0.23-40.428-0.058-60.642-0.058zM846.912 420.040c0-0.058 0-0.058 0-0.058-20.963-0.058-41.925-0.23-62.888 0-11.23 0.115-17.334-3.801-17.853-16.125-2.073-48.663-12.727-95.829-26.837-142.246-3.398-11.23-2.188-15.722 10.884-15.434 34.669 0.691 69.338 0.576 104.064 0.23 13.879-0.115 22.402 5.183 28.795 17.968 21.999 43.883 33.46 90.531 40.198 138.791 1.843 13.073-4.204 16.931-15.664 16.931-20.214-0.115-40.428-0.058-60.699-0.058zM618.339 44.844c85.060 23.842 154.282 69.683 210.778 135.393 9.157 10.654 2.879 13.303-7.659 13.303-31.098-0.058-62.197-0.461-93.295 0.173-13.476 0.288-19.062-7.429-24.072-17.795-19.293-39.967-43.71-76.479-72.736-110.054-4.895-5.759-11.403-10.827-13.015-21.020zM178.816 699.695c38.873 0 70.662 0.864 102.337-0.346 17.047-0.633 26.491 6.104 33.632 20.905 20.214 41.925 46.935 79.531 77.746 114.373 2.879 3.225 8.638 5.874 5.356 13.591-86.845-25.627-158.774-72.448-219.071-148.523zM398.865 47.090c-35.418 41.81-64.788 86.96-89.552 135.163-5.068 9.905-13.879 11.288-23.842 11.23-28.852-0.173-57.762 0.115-86.615-0.115-4.722-0.058-11.172 2.419-13.764-3.11-2.534-5.413 2.995-9.157 6.104-12.785 55.228-65.076 124.451-108.326 207.668-130.383zM765.653 699.753c23.209 0 39.103-0.115 54.998 0.058 4.146 0.058 9.33-1.497 11.863 2.937 2.649 4.722-1.555 8.005-4.319 11.172-50.679 58.684-112.127 101.588-185.611 126.87-5.068 1.728-11.633 6.565-15.837 0.403-4.089-5.932 1.958-10.712 5.644-14.858 21.135-23.9 42.789-48.49 54.537-77.688 16.528-41.292 41.349-60.584 78.725-48.894zM482.025 848.852c-48.951-40.716-83.793-85.117-112.472-134.702-5.586-9.675-4.031-14.628 8.12-14.513 29.601 0.23 59.144 0.23 88.746 0.115 11.115-0.058 15.607 5.471 15.607 15.952 0 42.444 0 84.887 0 133.147zM594.612 699.695c0 0.115 0 0.23 0 0.23 14.455 0.115 28.968 0.518 43.423 0 14.628-0.518 15.549 4.607 8.926 16.24-25.627 45.035-58.223 84.426-96.002 119.671-3.11 2.937-6.508 7.256-10.942 5.817-6.104-1.958-4.55-8.35-4.607-13.188-0.115-36.915 0.173-73.772-0.115-110.687-0.115-12.727 5.068-18.659 18.083-18.198 13.706 0.461 27.47 0.115 41.234 0.115zM482.082 119.308c0 18.774-0.173 37.548 0.058 56.323 0.115 11.115-3.571 17.968-16.067 17.853-29.601-0.23-59.202-0.115-88.861 0-10.021 0.058-13.188-3.052-7.89-12.958 25.167-47.051 58.453-87.536 97.557-123.414 3.11-2.879 6.335-7.314 10.884-5.413 5.817 2.361 4.146 8.696 4.262 13.418 0.23 18.083 0.115 36.109 0.058 54.192zM535.41 119.883c0-18.832-0.115-37.664 0.058-56.495 0.058-4.146-1.094-9.445 3.859-11.46 4.78-1.958 7.89 2.246 11.057 5.068 38.297 34.899 70.432 74.694 95.714 120.017 6.277 11.23 3.225 16.298-9.157 16.298-28.219 0.115-56.495-0.173-84.714 0.115-12.036 0.115-17.047-5.413-16.874-17.162 0.288-18.717 0.058-37.548 0.058-56.38z" />
<glyph unicode="&#xe902;" glyph-name="Mision" horiz-adv-x="876" d="M454.612 794.142v19.926c29.313 7.544 51.14 34.093 51.14 65.767 0 37.606-30.58 68.186-68.186 68.186-37.664 0-68.186-30.58-68.186-68.186 0-31.732 21.826-58.223 51.14-65.767v-19.926c-227.248-8.984-409.404-196.611-409.404-425.99 0-235.138 191.313-426.393 426.393-426.393s426.393 191.313 426.393 426.393c0.058 229.379-182.098 417.006-409.289 425.99v0zM403.357 879.835c0 18.832 15.319 34.035 34.151 34.035s34.151-15.204 34.151-34.035c0-18.832-15.319-34.151-34.151-34.151-18.774 0-34.151 15.319-34.151 34.151v0zM437.565-24.206c-216.306 0-392.243 175.994-392.243 392.358 0 216.249 175.936 392.243 392.243 392.243s392.243-175.994 392.243-392.243c0-216.364-175.994-392.358-392.243-392.358v0zM647.019 600.526l-289.503-144.78c-0.403-0.23-0.633-0.633-1.094-0.979-1.152-0.633-2.073-1.555-2.995-2.476-0.979-0.979-1.843-1.843-2.592-2.995-0.23-0.403-0.691-0.749-0.921-1.152l-144.723-289.388c-3.283-6.565-2.016-14.513 3.225-19.753 3.225-3.283 7.544-5.010 11.979-5.010 2.592 0 5.241 0.576 7.659 1.843l289.388 144.723c0.518 0.173 0.749 0.691 1.152 0.921 1.152 0.691 1.958 1.613 2.995 2.592 0.979 0.921 1.843 1.843 2.592 2.995 0.23 0.403 0.691 0.633 0.921 1.094l144.78 289.445c3.283 6.565 2.016 14.513-3.225 19.638-5.183 5.183-13.073 6.508-19.638 3.283v0zM258.577 189.164l111.263 222.526 111.263-111.263-222.526-111.263zM505.233 324.614l-111.263 111.148 222.526 111.263-111.263-222.411z" />
<glyph unicode="&#xe903;" glyph-name="Valores" horiz-adv-x="1180" d="M1137.509 685.586l-233.526 233.526c-14.801 14.801-34.439 22.921-55.344 22.921s-40.543-8.12-55.344-22.921l-54.883-54.883c-8.408-8.408-14.455-18.371-18.256-28.968l-256.734 45.956c0 0-0.058 0-0.058 0-115.409 22.921-228.17-52.119-251.436-167.586l-11.863-58.741c-13.073-64.903 29.083-128.252 93.929-141.382 64.903-13.073 128.31 29.083 141.382 93.929l7.256 35.936 115.122-10.078 355.155-355.155c11.057-11.057 11.057-28.968 0-40.025-11-11-28.968-11.057-40.025 0l-145.932 145.99c-10.193 10.193-26.664 10.193-36.8 0-10.136-10.136-10.136-26.606 0-36.8l145.99-145.99c5.356-5.356 8.293-12.439 8.293-19.984s-2.937-14.685-8.293-19.984c-11.057-11.057-29.025-11.057-40.025 0l-145.99 145.99c-10.193 10.193-26.664 10.193-36.8 0-10.193-10.193-10.193-26.664 0-36.8l145.99-145.99c11.057-11.057 11.057-28.968 0-40.025-5.356-5.356-12.439-8.293-19.984-8.293s-14.685 2.937-20.041 8.293l-145.99 145.99c-10.193 10.193-26.664 10.193-36.8 0-10.193-10.193-10.193-26.664 0-36.8l145.99-145.99c11.057-11.057 11.057-28.968 0-40.025-11-11-28.968-11.057-40.025 0l-584.764 584.649c-10.193 10.193-26.664 10.193-36.8 0s-10.193-26.664 0-36.8l142.419-142.419-40.889-40.889c-13.418-13.361-20.79-31.214-20.79-50.161s7.371-36.8 20.79-50.161l13.361-13.361c11.691-11.691 26.779-18.832 43.077-20.444 1.613-16.298 8.696-31.386 20.444-43.077l13.361-13.361c12.036-12.036 27.355-18.774 43.077-20.387 1.613-16.298 8.696-31.386 20.444-43.135l13.361-13.361c11.691-11.691 26.779-18.832 43.077-20.444 1.613-16.298 8.754-31.386 20.444-43.077l13.361-13.361c13.821-13.821 32.020-20.732 50.161-20.732s36.339 6.911 50.161 20.732l40.889 40.889 98.075-98.075c15.146-15.146 35.36-23.554 56.841-23.554s41.637 8.35 56.841 23.554c14.397 14.397 22.575 33.287 23.381 53.501 20.214 0.806 39.103 8.984 53.501 23.381 14.858 14.858 22.575 34.035 23.324 53.501 19.465 0.806 38.643 8.523 53.501 23.324 14.801 14.801 22.575 34.035 23.324 53.501 19.465 0.806 38.7 8.523 53.501 23.324 31.329 31.386 31.329 82.353 0 113.682l-36.109 36.109 223.851 223.851c30.35 30.522 30.35 80.165-0.173 110.687v0zM159.235 308.662c-7.371 7.371-7.371 19.35 0 26.664l38.355 38.355 40.025-40.025-38.355-38.355c-7.371-7.371-19.35-7.371-26.664 0l-13.361 13.361zM236.060 231.78c-7.371 7.371-7.371 19.35 0 26.664l38.355 38.355 40.025-39.967-38.355-38.355c-7.371-7.371-19.35-7.371-26.664 0l-13.361 13.303zM312.884 154.956c-3.571 3.571-5.529 8.293-5.529 13.303s1.958 9.79 5.529 13.303l38.412 38.412 40.025-40.025-38.355-38.355c-7.371-7.371-19.35-7.371-26.664 0l-13.418 13.361zM429.791 64.77c-7.371-7.371-19.35-7.371-26.664 0l-13.361 13.361c-7.371 7.371-7.371 19.35 0 26.664l38.355 38.355 40.025-40.025-38.355-38.355zM876.859 387.905l-288.984 288.984c-4.319 4.319-10.021 6.968-16.125 7.544l-147.775 12.9c-0.749 0.058-1.497 0.058-2.304 0.058-12.267 0-23.036-8.638-25.512-20.905l-11.863-58.741c-7.371-36.742-43.307-60.584-80.049-53.155-17.795 3.571-33.114 13.879-43.135 28.968-10.021 15.146-13.591 33.229-10.021 51.024l11.806 58.741c17.622 87.536 103.143 144.377 190.737 126.755 0.173-0.058 0.346-0.115 0.576-0.115l252.991-45.323 283.168-283.168-113.509-113.567zM1100.709 611.756l-73.427-73.369-252.070 252.070c-4.953 4.953-7.659 11.518-7.659 18.544 0 6.968 2.707 13.534 7.659 18.544l54.883 54.883c4.953 4.953 11.518 7.659 18.544 7.659 6.968 0 13.534-2.707 18.544-7.659l233.526-233.526c4.953-4.953 7.659-11.518 7.659-18.544 0-7.084-2.707-13.649-7.659-18.601v0zM1063.679 619.934c0-14.397-11.633-26.030-26.030-26.030-14.34 0-26.030 11.633-26.030 26.030 0 14.34 11.691 26.030 26.030 26.030 14.397 0 26.030-11.691 26.030-26.030v0z" />
<glyph unicode="&#xe904;" glyph-name="D" horiz-adv-x="1844" d="M1491.973 682.879c-19.984 5.701-40.831-5.874-46.532-25.858s5.874-40.831 25.858-46.532c171.732-49.124 278.446-120.362 278.446-185.899 0-47.972-58.338-100.667-160.157-144.492-111.954-48.26-270.786-83.562-447.356-99.457l-154.167 2.073c-0.173 0-0.346 0-0.518 0-20.559 0-37.318-16.528-37.606-37.145-0.288-20.79 16.355-37.836 37.088-38.124l156.068-2.131c0.173 0 0.346 0 0.518 0 1.152 0 2.246 0.058 3.34 0.173 185.15 16.528 352.909 53.961 472.407 105.446 169.947 73.254 205.595 156.586 205.595 213.657 0.058 105.101-118.231 196.841-332.983 258.289v0zM706.854 326.112c-13.418 15.895-37.145 17.853-53.040 4.434s-17.853-37.145-4.434-53.040l84.138-99.515c-177.606 13.534-338.454 46.072-456.685 92.777-116.158 45.841-182.847 101.876-182.847 153.822 0 60.296 89.321 125.2 238.939 173.748 19.753 6.392 30.638 27.643 24.188 47.396-6.392 19.753-27.643 30.58-47.396 24.188-87.018-28.219-156.068-61.794-205.134-99.803-56.956-44.114-85.808-93.065-85.808-145.529 0-86.96 79.704-164.361 230.416-223.851 122.551-48.318 286.854-82.295 467.454-96.923l-75.039-83.159c-13.937-15.434-12.67-39.218 2.764-53.155 7.199-6.508 16.183-9.675 25.167-9.675 10.251 0 20.502 4.204 27.931 12.439l136.948 151.748c6.22 6.911 9.675 15.895 9.675 25.224v2.879c0 8.869-3.167 17.507-8.926 24.303l-128.31 151.691zM1343.161 806.121h88.688c11.979 0 21.711 9.733 21.711 21.711v88.688c0 11.979-9.733 21.711-21.711 21.711h-88.688c-11.979 0-21.711-9.733-21.711-21.711v-88.688c0-12.036 9.733-21.711 21.711-21.711v0zM1364.815 894.809h45.265v-45.323h-45.265v45.323zM403.588 531.303c20.041-8.754 47.742-14.57 74.694-14.57 48.548 0 75.5 22.748 75.5 54.768 0 41.925-42.386 60.008-93.986 60.008h-13.879v55.919h10.021c36.972 0.576 84.714 12.209 84.714 48.951 0 27.355-23.093 43.71-58.511 43.71-22.345 0-44.69-6.392-63.176-15.146l-13.073 57.647c20.79 9.905 61.621 19.811 103.2 19.811 87.824 0 131.707-43.077 131.707-91.452 0-37.836-27.701-69.338-71.641-85.060v-1.152c48.548-12.209 85.463-44.862 85.463-96.117 0-57.647-58.511-114.2-167.125-114.2-40.831 0-76.249 7.602-98.593 16.874l14.685 60.008zM971.997 780.609c-12.324-0.576-26.203-1.728-41.58-4.089-66.228-11.057-99.342-52.982-111.666-100.782h2.304c17.738 18.083 43.883 30.292 76.997 30.292 67.783 0 113.221-46.014 113.221-117.655 0-66.401-44.69-133.953-142.477-133.953-94.735 0-152.497 62.312-152.497 156.125 0 82.699 36.224 139.194 82.411 176.512 32.365 27.355 80.856 45.438 122.435 51.255 23.9 3.513 40.025 3.513 50.852 4.089v-61.794zM911.931 588.95c-0.749 32.020-14.628 62.312-46.993 62.312-16.183 0-31.559-8.178-40.831-25.627-3.052-4.089-5.413-15.722-5.413-33.229 0-49.527 18.486-82.699 48.548-82.699 33.863 0 44.69 33.805 44.69 79.243zM1337.057 650.111c0-135.739-65.479-195.747-146.335-195.747-109.363 0-146.335 94.965-146.335 192.234 0 108.902 46.187 195.747 150.194 195.747 115.525 0 142.477-101.934 142.477-192.234zM1146.032 648.383c-1.555-88.515 13.073-128.713 46.993-128.713 31.559 0 42.386 41.925 42.386 128.713 0 80.971-10.021 128.713-42.386 128.713-31.559 0-47.742-40.773-46.993-128.713z" />
<glyph unicode="&#xe905;" glyph-name="BookD" horiz-adv-x="818" d="M555.163 944.508h-537.714v-995.32h779.705v753.387l-241.991 241.934zM564.838 887.955l175.591-175.591h-175.591v175.591zM50.679-17.525v928.862h481.046v-232.201h232.201v-696.661h-713.247zM614.653 596.149h-265.43c-9.157 0-16.586-7.371-16.586-16.586 0-9.157 7.487-16.528 16.586-16.528h265.43c9.157 0 16.586 7.371 16.586 16.528 0.058 9.214-7.429 16.586-16.586 16.586v0zM289.157 642.336l-71.353-57.129-22.69 22.69c-6.45 6.45-16.989 6.45-23.497 0-6.508-6.508-6.508-17.047 0-23.497l33.172-33.114c3.225-3.225 7.487-4.838 11.748-4.838 3.628 0 7.256 1.209 10.309 3.628l82.929 66.343c7.199 5.759 8.35 16.183 2.592 23.324-5.644 7.141-16.125 8.235-23.209 2.592v0zM614.653 413.648h-265.43c-9.157 0-16.586-7.371-16.586-16.528 0-9.272 7.487-16.586 16.586-16.586h265.43c9.157 0 16.586 7.371 16.586 16.586 0.058 9.157-7.429 16.528-16.586 16.528v0zM289.157 459.835l-71.353-57.129-22.69 22.69c-6.45 6.45-16.989 6.45-23.497 0-6.508-6.508-6.508-16.931 0-23.439l33.172-33.229c3.225-3.225 7.487-4.838 11.748-4.838 3.628 0 7.256 1.209 10.309 3.628l82.929 66.343c7.199 5.759 8.35 16.183 2.592 23.324-5.644 7.199-16.125 8.408-23.209 2.649v0zM614.653 231.262h-265.43c-9.157 0-16.586-7.487-16.586-16.586 0-9.157 7.487-16.586 16.586-16.586h265.43c9.157 0 16.586 7.429 16.586 16.586 0.058 9.157-7.429 16.586-16.586 16.586v0zM289.157 277.333l-71.353-57.129-22.69 22.69c-6.45 6.508-16.989 6.508-23.497 0-6.508-6.45-6.508-16.931 0-23.439l33.172-33.172c3.225-3.283 7.487-4.895 11.748-4.895 3.628 0 7.256 1.209 10.309 3.628l82.929 66.343c7.199 5.759 8.35 16.183 2.592 23.324-5.644 7.314-16.125 8.408-23.209 2.649v0z" />
<glyph unicode="&#xe906;" glyph-name="CerebroD" horiz-adv-x="1064" d="M1027.283 567.585c-1.785 4.953-4.204 9.848-7.371 14.858-0.058 0.115-0.115 0.23-0.23 0.346l-2.361 3.513c-0.058 0.115-0.115 0.173-0.173 0.288-0.806 1.152-1.613 2.246-2.476 3.34-1.785 2.246-3.686 4.377-5.586 6.335l-5.125 5.068 4.722 5.471c3.167 3.686 5.759 8.063 8.523 14.225 0.058 0.115 0.115 0.23 0.115 0.288 1.209 2.822 2.304 5.644 2.937 8.235 0.806 3.052 1.382 6.22 1.843 9.445 1.9 12.67 0.23 26.549-4.895 40.37-1.267 3.283-2.879 6.45-4.434 9.445-0.058 0.115-0.115 0.23-0.173 0.288l-0.461 0.806c-1.555 2.764-2.995 5.413-4.607 7.487l-0.173 0.23c-2.016 2.764-4.262 5.413-6.45 7.89-2.476 2.764-4.55 4.722-6.623 6.392-6.162 4.953-10.596 7.775-15.088 9.79-5.298 2.419-10.712 4.204-16.010 5.241l-6.968 1.382 0.806 7.084c0.576 5.356 0.518 11.057-0.173 16.816-0.576 4.895-1.9 9.963-4.434 16.874-0.058 0.115-0.058 0.23-0.115 0.346-4.492 11.46-12.094 22.172-21.826 30.926-5.241 4.78-11.172 8.408-15.722 11.057-0.115 0.058-0.23 0.115-0.346 0.173-4.722 2.592-10.078 4.722-16.759 6.623-4.665 1.382-10.021 2.131-16.816 2.419-0.115 0-0.173 0-0.288 0-0.864 0-1.728 0.058-2.534 0.058-1.382 0-3.34-0.058-5.413-0.23-2.764-0.288-5.471-0.749-8.12-1.267l-7.487-1.613-1.728 7.487c-4.895 21.654-21.769 41.407-43.883 51.485-10.827 4.953-22.23 7.429-33.805 7.429-11.863 0-23.324-2.707-33.287-7.832l-6.853-3.513-3.571 6.853c-10.424 20.099-30.522 34.899-53.731 39.564-5.586 1.152-11.345 1.728-16.989 1.728-17.91 0-34.899-5.817-47.915-16.413l-6.104-4.953-4.895 6.162c-3.283 4.146-7.141 8.005-11.403 11.288-4.204 3.34-8.869 6.335-13.879 8.869-0.173 0.115-0.346 0.173-0.518 0.288-11.23 5.183-22.633 7.832-33.863 7.89-0.461 0-1.958 0.058-2.476 0.058-10.596 0-21.366-2.304-32.077-6.796-0.173-0.058-0.346-0.173-0.576-0.23-5.068-2.361-9.848-5.183-14.167-8.408-4.377-3.167-8.293-6.853-11.748-10.884l-5.068-5.989-5.932 5.183c-13.303 11.576-31.156 18.026-50.161 18.026-4.665 0-9.387-0.403-14.052-1.152-23.324-3.916-43.883-17.968-55.056-37.548l-3.801-6.68-6.738 3.743c-10.769 6.047-23.324 9.214-36.339 9.214-10.366 0-20.559-2.016-30.35-5.932-0.115-0.058-0.173-0.058-0.288-0.115-5.989-2.534-11.403-5.471-16.067-8.638-0.115-0.058-0.23-0.173-0.346-0.23-4.78-3.455-9.157-7.256-13.073-11.403-0.115-0.115-0.23-0.288-0.346-0.403-7.89-8.926-13.303-18.544-16.125-28.564l-2.073-7.371-7.371 1.958c-5.701 1.497-11.057 2.304-16.010 2.419-0.058 0-0.173 0-0.23 0h-1.152c-5.125 0-10.424-0.518-15.722-1.497-0.115 0-0.23-0.058-0.346-0.058-5.298-1.152-10.827-2.995-16.989-5.701-4.895-2.188-10.193-5.471-16.183-9.963-0.115-0.058-0.23-0.173-0.346-0.23-4.434-3.455-8.811-7.832-13.418-13.246-0.115-0.115-0.23-0.288-0.346-0.403-3.455-4.377-6.623-9.502-9.502-15.146-0.058-0.173-0.173-0.346-0.23-0.518-4.953-10.884-7.314-22.23-6.738-32.826l0.403-7.429-7.429-0.691c-2.592-0.23-5.241-0.633-7.89-1.152-0.173-0.058-0.346-0.058-0.576-0.115-2.304-0.576-4.838-1.325-7.602-2.361-6.335-2.361-11.46-5.010-15.549-8.005l-0.23-0.173c-6.047-4.262-10.539-8.235-14.052-12.497l-0.23-0.288c-2.073-2.419-4.146-5.010-6.047-7.659-0.173-0.23-0.346-0.461-0.518-0.749-1.67-2.592-3.34-5.471-5.010-8.811-6.104-11.691-9.33-25.57-9.099-39.161 0.115-5.471 1.094-11.518 2.879-18.026 0.058-0.115 0.058-0.288 0.115-0.403 1.497-4.953 3.859-10.021 7.026-15.204l3.686-5.932-5.529-4.262c-14.628-11.23-29.831-36.281-24.591-69.741 0.058-0.288 0.115-0.576 0.173-0.806 0.806-3.743 1.728-7.487 2.879-11.288l0.346-1.152c0.633-1.958 0.921-2.879 1.382-3.974 0.806-1.843 1.67-3.686 2.476-5.356 1.613-3.167 3.34-6.565 5.298-9.56 0.115-0.173 0.23-0.346 0.346-0.518 2.131-2.937 4.377-5.817 6.68-8.408l0.633-0.691c1.037-1.152 1.785-1.958 2.592-2.707 0.173-0.115 0.288-0.288 0.461-0.403 1.267-1.152 2.592-2.188 3.859-3.225 2.476-1.958 5.010-3.801 7.602-5.356 0.288-0.173 0.633-0.346 0.921-0.518 5.298-2.822 10.712-4.895 16.24-6.104l6.162-1.325-0.058-6.277c-0.058-5.874 0.691-11.863 2.188-17.334 0.058-0.23 0.115-0.403 0.173-0.633 0.921-2.879 2.016-5.817 3.34-8.754 0.633-1.382 1.267-2.764 1.958-4.146 0.115-0.288 0.288-0.518 0.403-0.806 0.749-1.267 1.497-2.476 2.304-3.743 1.843-2.822 3.859-5.644 6.047-8.35 0.115-0.173 0.288-0.346 0.403-0.518 1.843-2.131 4.031-4.377 7.199-7.256 1.382-1.267 2.764-2.476 4.146-3.628 1.152-0.921 2.188-1.67 3.052-2.246l1.152-0.806c2.879-1.958 5.989-3.859 9.099-5.644 0.23-0.115 0.461-0.23 0.691-0.346 11.921-5.932 24.245-9.042 35.763-9.042 0.691 0 1.325 0 2.131 0.058 2.995 0.058 5.932 0.288 8.811 0.633 0.115 0 0.23 0.058 0.346 0.058 2.937 0.403 5.932 1.209 8.063 1.785 5.932 1.67 10.884 3.686 15.088 6.162l6.68 3.916 3.974-6.623c11.288-19.005 32.941-32.826 56.553-36.109 3.859-0.518 7.717-0.806 11.518-0.806 19.177 0 37.433 6.796 51.427 19.12l5.932 5.241 5.125-6.047c14.225-16.816 35.533-26.952 58.396-27.701 1.094-0.058 2.131 0 3.225 0-5.874-11.288-9.099-24.015-9.099-37.26 0-39.276 28.161-72.045 65.307-79.301 3.801-71.929 46.935-137.697 112.069-169.428l58.223-28.392c19.868-9.56 32.193-28.795 32.193-50.161 0-29.543 24.015-53.558 53.558-53.558h19.235c29.543 0 53.558 24.015 53.558 53.558 0 42.616-15.376 83.332-41.868 115.409 4.838-0.346 9.617-0.518 14.455-0.518 2.822 0 5.701 0.058 8.581 0.173 110.284 4.55 196.611 94.735 196.553 205.249 0 8.696-7.084 15.78-15.78 15.78 0 0 0 0 0 0-8.696 0-15.78-7.084-15.78-15.78 0.058-93.525-72.966-169.774-166.319-173.69-28.852-1.209-57.762 4.78-83.447 17.334l-57.762 28.161c-19.984 9.733-34.323 28.161-39.391 49.354 0.115 0 0.288 0 0.403 0 12.382 0.979 23.497 4.146 32.884 9.272 9.963 5.356 18.256 12.324 24.764 20.675l4.838 6.162 6.104-4.895c8.178-6.508 18.083-11.518 28.622-14.397 0.173-0.058 0.346-0.115 0.576-0.115 6.623-1.555 13.303-2.361 19.926-2.361 4.78 0 9.733 0.403 14.225 1.267 0.058 0 0.115 0 0.23 0.058 12.555 2.419 23.554 7.026 32.538 13.534 4.665 3.283 8.869 6.911 12.439 10.769 0.115 0.115 0.173 0.173 0.288 0.288 3.628 4.089 6.796 8.466 9.445 13.073l3.801 6.68 6.68-3.743c5.241-2.879 10.193-5.010 14.916-6.335 5.356-1.497 11.057-2.419 16.759-2.764h0.288c5.068-0.403 10.769-0.058 17.622 1.152 6.911 1.209 12.612 2.879 17.968 5.356l0.403 0.173c23.381 9.963 41.234 30.638 45.553 52.637l1.382 7.199 7.314-1.037c2.534-0.346 5.183-0.691 8.12-0.691 0 0 0 0 0 0 2.822 0.058 5.701 0.23 8.581 0.576 2.937 0.346 5.932 0.921 8.926 1.613 2.764 0.691 5.701 1.843 8.35 2.879 0.058 0 0.115 0.058 0.173 0.058 2.937 1.209 5.874 2.649 8.811 4.204 0.115 0.058 0.23 0.115 0.346 0.173 2.592 1.44 5.125 3.283 7.947 5.413 0.115 0.058 0.173 0.115 0.288 0.23 2.476 1.9 5.241 4.089 7.659 6.45 0.058 0.058 0.173 0.173 0.23 0.23 2.534 2.592 4.953 5.356 7.256 8.235 1.037 1.267 2.016 2.534 2.995 3.859 0.23 0.288 0.403 0.576 0.576 0.864 0.864 1.382 1.728 2.764 2.534 4.146 1.728 2.995 3.34 6.047 4.78 9.099 0.115 0.288 0.23 0.576 0.346 0.806 2.592 6.392 4.377 12.555 5.298 18.371 0.058 0.23 0.058 0.518 0.115 0.749 0.576 5.125 1.152 11.806 0.288 17.968-0.921 6.508-2.304 11.863-4.262 16.413l-2.822 6.565 6.335 3.34c4.838 2.534 9.387 5.759 13.649 9.445 0.173 0.115 0.346 0.288 0.461 0.461 4.434 4.262 8.235 8.754 11.345 13.476 7.026 10.884 11.633 23.669 12.9 35.936v0.23c1.325 12.094-0.058 24.36-4.262 36.224zM615.863 169.698l57.762-28.161c0 0 0.058 0 0.058-0.058 52.119-25.109 85.808-78.322 85.808-135.508 0-12.094-9.848-21.942-21.942-21.942h-19.235c-12.094 0-21.942 9.848-21.942 21.942 0 33.632-19.177 63.752-50.103 78.667l-57.993 28.276c-54.422 26.549-90.588 81.201-94.332 141.21 1.267 0.23 2.476 0.518 3.686 0.806 8.466 2.131 13.591 10.712 11.46 19.177s-10.712 13.591-19.177 11.46c-3.916-0.979-8.005-1.497-12.094-1.497-27.125 0-49.239 22.057-49.239 49.239 0 9.272 2.592 18.198 7.314 25.8 12.094-27.701 38.009-47.742 68.186-52.061l4.895-0.691 1.44-4.722c3.916-12.958 11.345-24.648 21.423-33.863 7.602-6.911 16.471-12.267 25.685-15.492 4.089-35.245 26.088-66.861 58.338-82.583zM999.985 534.701l-0.058-0.518c-0.806-7.544-3.628-15.376-7.89-21.999-1.67-2.534-3.916-5.183-6.565-7.717-2.304-2.016-4.722-3.686-7.256-5.010l-15.837-8.408c-0.461 0.058-0.921 0.058-1.382 0.058h-27.413c-18.313 0-33.172 14.858-33.172 33.172 0 35.706-29.025 64.731-64.731 64.731h-2.304c-35.706 0-64.731-29.025-64.731-64.731 0-16.24-13.188-29.428-29.428-29.428-18.313 0-33.172 14.858-33.172 33.172v13.821c0 8.696-7.084 15.78-15.78 15.78s-15.78-7.084-15.78-15.78v-13.821c0-35.706 29.025-64.731 64.731-64.731 33.632 0 60.987 27.355 60.987 60.987 0 18.313 14.858 33.172 33.172 33.172h2.304c18.313 0 33.172-14.858 33.172-33.172 0-35.706 29.025-64.731 64.731-64.731h22.46l4.434-10.366c0.806-1.9 1.497-4.78 2.016-8.408 0.288-1.9 0.173-5.125-0.346-9.56-0.576-3.283-1.613-6.968-3.167-10.884-0.979-2.073-2.131-4.204-3.283-6.22-0.518-0.864-1.037-1.785-1.613-2.649-0.576-0.806-1.209-1.555-1.843-2.361-1.613-2.016-3.398-4.031-5.183-5.932-1.037-0.979-2.937-2.476-4.55-3.743-1.325-0.979-3.34-2.476-4.434-3.11-1.958-1.037-3.916-1.958-5.701-2.707-1.152-0.461-3.283-1.325-3.916-1.497-1.9-0.461-3.743-0.806-5.529-1.037-1.67-0.23-3.34-0.346-4.78-0.346-0.749 0-2.822 0.288-3.513 0.403l-22.114 3.11c-8.35 1.209-16.125-4.377-17.738-12.612l-4.262-21.942c-2.304-11.863-13.188-23.784-27.010-29.659-0.058-0.058-0.115-0.058-0.23-0.115l-0.576-0.288c-0.058-0.058-0.115-0.058-0.173-0.115-2.822-1.267-6.104-2.246-10.366-2.995-3.225-0.576-5.874-0.864-8.005-0.864-0.518 0-1.037 0-1.728 0.058l-0.576 0.058c-3.686 0.23-7.199 0.806-10.424 1.67-1.555 0.403-4.146 1.382-8.005 3.513l-20.329 11.345c-7.544 4.204-17.104 1.555-21.423-5.989l-11.518-20.214c-1.497-2.649-3.34-5.183-5.471-7.602-2.131-2.246-4.607-4.377-7.602-6.508-5.356-3.859-12.151-6.623-20.099-8.178-6.335-1.152-13.764-0.921-20.847 0.749-6.392 1.785-12.267 4.78-17.104 8.581l-10.596 8.466c0.058 0.518 0.058 1.037 0.058 1.613v2.304c0 35.706-29.025 64.731-64.731 64.731-16.24 0-29.428 13.188-29.428 29.428 0 18.313 14.858 33.172 33.172 33.172h13.821c8.696 0 15.78 7.084 15.78 15.78s-7.084 15.78-15.78 15.78h-13.821c-35.706 0-64.731-29.025-64.731-64.731 0-33.632 27.355-60.987 60.987-60.987 18.313 0 33.172-14.858 33.172-33.172v-1.67l-13.418-17.219c-3.801-4.895-8.811-8.984-14.973-12.324-5.529-3.052-12.382-4.895-20.272-5.529-3.974-0.288-8.12 0-12.439 0.864-0.058 0-0.115 0.058-0.173 0.058-2.361 0.461-4.722 1.152-7.141 1.958-5.471 1.843-10.769 5.068-15.376 9.272-5.874 5.356-10.193 12.151-12.497 19.696l-4.319 14.397c-1.785 5.874-6.796 10.193-12.9 11.057l-14.858 2.131c-21.193 2.995-39.161 18.198-45.726 38.643l-6.738 20.675c-2.131 6.623-8.293 10.942-15.031 10.942-1.152 0-2.361-0.115-3.513-0.403l-21.020-4.78c-4.146-0.921-8.466-1.325-12.727-1.209-13.994 0.461-26.837 6.508-35.302 16.528l-15.549 18.371c-2.764 3.225-6.68 5.241-10.884 5.529-4.262 0.288-8.408-1.094-11.576-3.916l-18.026-15.895c-9.905-8.754-23.554-12.727-37.721-10.712-14.109 1.958-27.355 10.136-33.747 20.905l-11.979 20.214c-4.434 7.487-14.109 9.963-21.596 5.529l-20.272-11.921c-1.785-1.037-4.319-2.016-7.371-2.879-1.785-0.461-3.11-0.806-4.089-0.921-1.785-0.23-3.628-0.346-5.644-0.403-0.518 0-0.921 0-1.267 0-6.508 0-13.879 1.9-21.366 5.586-2.188 1.267-4.319 2.592-6.277 3.916l-1.209 0.864c-0.288 0.23-0.576 0.403-0.749 0.461-0.921 0.749-1.958 1.67-2.879 2.534-2.073 1.958-3.513 3.34-4.607 4.607-1.44 1.843-2.822 3.743-4.031 5.529-0.403 0.633-0.864 1.325-1.267 2.016-0.403 0.749-0.749 1.555-1.094 2.304-0.749 1.728-1.44 3.455-2.016 5.183-0.691 2.592-1.037 5.529-0.979 8.408l0.173 19.12c0.058 7.487-5.125 13.994-12.382 15.549l-18.659 4.089c-2.476 0.518-5.068 1.497-7.602 2.822-1.44 0.921-2.879 1.958-4.262 3.052-0.749 0.576-1.44 1.152-2.188 1.785-0.23 0.288-0.576 0.633-0.864 0.979l-0.518 0.576c-1.44 1.67-2.995 3.571-4.434 5.529-0.979 1.555-2.131 3.859-3.225 5.932-0.518 1.037-1.094 2.246-1.555 3.398-0.115 0.346-0.288 0.864-0.403 1.325l-0.346 1.037c-0.806 2.649-1.497 5.298-2.073 8.005-3.11 21.020 6.508 34.727 12.727 39.506l16.816 12.958c6.392 4.953 8.063 13.937 3.801 20.79l-11.115 18.083c-1.67 2.707-2.879 5.298-3.571 7.487-1.037 3.916-1.613 7.487-1.728 10.251-0.173 8.12 1.843 16.816 5.529 23.842 1.209 2.304 2.304 4.262 3.398 5.989 1.325 1.785 2.707 3.513 4.204 5.241l0.461 0.518c1.843 2.188 4.377 4.434 8.178 7.084l0.461 0.346c1.785 1.325 4.55 2.649 8.005 3.974 1.44 0.518 2.707 0.921 3.743 1.209 1.44 0.288 2.822 0.461 4.204 0.633l22.575 2.073c8.466 0.806 14.743 8.12 14.34 16.586l-1.209 22.633c-0.288 5.413 1.037 11.576 3.801 17.738 1.843 3.571 3.743 6.738 5.817 9.33 3.052 3.628 5.817 6.392 8.466 8.466 4.031 2.995 7.487 5.125 10.078 6.335 3.859 1.728 7.429 2.937 10.481 3.628 3.283 0.633 6.508 0.921 9.502 0.921h0.921c1.728-0.058 4.607-0.346 8.581-1.382l21.999-5.817c12.727-12.958 12.67-33.863-0.173-46.705-12.209-12.209-18.947-28.507-18.947-45.784s6.738-33.575 18.947-45.784l1.613-1.613c12.209-12.209 28.507-18.947 45.784-18.947s33.575 6.738 45.784 18.947c11.46 11.46 30.119 11.46 41.58 0 12.958-12.958 12.958-33.978 0-46.935l-9.79-9.79c-6.162-6.162-6.162-16.183 0-22.345 3.11-3.11 7.141-4.607 11.172-4.607s8.063 1.555 11.172 4.607l9.79 9.79c25.224 25.224 25.224 66.343 0 91.567-23.784 23.784-62.485 23.784-86.269 0-6.277-6.277-14.57-9.733-23.439-9.733s-17.162 3.455-23.439 9.733l-1.613 1.613c-6.277 6.277-9.733 14.57-9.733 23.439s3.455 17.162 9.733 23.439c25.051 25.051 25.224 65.652 0.576 90.934l3.167 11.345c1.497 5.298 4.55 10.654 9.157 15.895 2.419 2.534 5.183 4.953 8.235 7.141 2.879 1.958 6.392 3.801 10.309 5.471 5.989 2.361 12.209 3.571 18.486 3.571 7.602 0 14.858-1.785 20.905-5.183l20.387-11.403c7.544-4.262 17.162-1.555 21.423 5.989l11.576 20.329c6.508 11.403 18.774 19.638 32.826 21.999 2.937 0.518 5.874 0.749 8.811 0.749 11.345 0 21.826-3.686 29.543-10.366l12.439-10.827c0-0.115 0-0.23 0-0.288v-48.894c0-35.706 29.025-64.731 64.731-64.731 18.313 0 33.172-14.858 33.172-33.172v-2.304c0-18.313-14.858-33.172-33.172-33.172-33.632 0-60.987-27.355-60.987-60.987 0-35.706 29.025-64.731 64.731-64.731h13.821c8.696 0 15.78 7.084 15.78 15.78s-7.084 15.78-15.78 15.78h-13.821c-18.313 0-33.172 14.858-33.172 33.172 0 16.24 13.188 29.428 29.428 29.428 35.706 0 64.731 29.025 64.731 64.731v2.304c0 35.706-29.025 64.731-64.731 64.731-18.313 0-33.172 14.858-33.172 33.172v48.894c0 0.461-0.058 0.864-0.058 1.325l11.921 14.167c1.785 2.073 3.859 4.031 6.22 5.759 2.649 1.958 5.529 3.686 8.638 5.125 6.68 2.764 13.303 4.204 19.523 4.204 0.518 0 1.958-0.058 1.958-0.058 0.115 0 0.173 0 0.288 0 6.68 0 13.591-1.67 20.617-4.838 2.995-1.555 5.817-3.34 8.408-5.413 2.361-1.843 4.319-3.801 6.047-5.989l14.801-18.774c2.592-3.34 6.45-5.471 10.654-5.932s8.408 0.749 11.691 3.455l18.544 15.088c9.848 8.005 24.245 11.172 38.643 8.235 13.937-2.822 25.915-11.46 31.962-23.151l10.769-20.79c4.031-7.717 13.476-10.769 21.251-6.796l20.847 10.712c5.529 2.822 12.036 4.319 18.889 4.319 7.026 0 14.052-1.555 20.732-4.607 13.188-5.989 23.439-17.68 26.203-29.716l1.9-8.35c-11.057-4.895-20.559-12.958-27.585-23.554-9.56-14.513-13.13-31.905-10.021-48.894 1.382-7.717-0.288-15.549-4.722-21.999-4.492-6.45-11.172-10.769-18.889-12.209-8.696-1.613-17.507 0.288-24.821 5.356-7.314 5.010-12.209 12.612-13.764 21.308l-2.476 13.591c-1.555 8.581-9.79 14.282-18.371 12.727s-14.282-9.79-12.727-18.371l2.476-13.591c3.11-16.989 12.67-31.789 26.894-41.637 10.942-7.544 23.669-11.518 36.685-11.518 3.916 0 7.832 0.346 11.748 1.094 16.010 2.937 29.947 11.921 39.218 25.339s12.727 29.601 9.848 45.611c-1.613 8.811 0.346 18.256 5.356 25.858s12.439 12.612 20.905 14.167c0.23 0.058 0.403 0.115 0.633 0.173 0.576 0.058 1.094 0.173 1.67 0.288l22.748 4.953c1.497 0.346 3.052 0.576 4.492 0.749 0.058 0 0.864 0.058 2.304 0.058 0.518 0 1.037 0 1.555 0 4.031-0.173 7.084-0.576 9.214-1.209 4.377-1.267 7.659-2.534 10.366-3.974 2.937-1.67 7.026-4.204 10.078-6.968 6.162-5.529 10.827-12.094 13.591-18.947 1.555-4.262 2.361-7.084 2.649-9.445 0.403-3.513 0.461-6.68 0.115-9.675l-2.361-21.538c-0.921-8.178 4.607-15.664 12.67-17.219l21.251-4.204c2.879-0.576 5.874-1.555 9.099-3.052 1.958-0.864 4.55-2.649 8.523-5.759 0.691-0.518 1.555-1.382 2.764-2.764 1.67-1.843 3.167-3.628 4.722-5.759l0.23-0.288c0.403-0.576 1.44-2.476 2.131-3.743l0.403-0.691c1.037-2.016 2.188-4.204 2.764-5.701 3.167-8.523 4.319-17.219 3.167-24.591-0.346-2.246-0.749-4.319-1.267-6.335-0.23-0.749-1.037-2.707-1.382-3.628-1.382-3.052-2.534-5.125-3.513-6.335l-14.282-16.586c-5.413-6.277-5.010-15.664 0.864-21.481l15.549-15.434c1.037-0.979 2.016-2.131 2.937-3.34 0.461-0.576 0.921-1.209 1.325-1.843l2.131-3.225c1.9-3.052 3.34-5.874 4.262-8.523 2.476-7.199 3.283-14.628 2.361-22.287z" />
<glyph unicode="&#xe907;" glyph-name="Flecha" horiz-adv-x="1022" d="M1000.503 821.612c-2.246 5.356-7.487 8.869-13.303 8.869h-93.007v93.007c0 5.817-3.513 11.057-8.869 13.303s-11.576 0.979-15.664-3.11l-107.347-107.347c-2.707-2.707-4.204-6.335-4.204-10.193v-101.473l-317.894-317.894c-5.644-5.644-5.644-14.743 0-20.329 2.822-2.822 6.508-4.204 10.193-4.204s7.371 1.382 10.193 4.204l19.926 19.926c1.037-3.11 1.555-6.392 1.555-9.733 0-17.45-14.167-31.617-31.617-31.617s-31.617 14.167-31.617 31.617c0 7.947-6.45 14.397-14.397 14.397s-14.397-6.45-14.397-14.397c0-33.287 27.067-60.411 60.411-60.411 33.287 0 60.411 27.067 60.411 60.411 0 11.115-3.052 21.942-8.754 31.329l23.497 23.497c11.576-15.837 17.853-34.899 17.853-54.768 0-51.255-41.695-93.007-93.007-93.007-51.255 0-93.007 41.695-93.007 93.007 0 51.255 41.695 93.007 93.007 93.007 7.256 0 14.513-0.864 21.538-2.476 7.717-1.843 15.492 2.937 17.334 10.654s-2.937 15.492-10.654 17.334c-9.157 2.188-18.659 3.283-28.161 3.283-67.149 0-121.744-54.595-121.744-121.744s54.595-121.744 121.744-121.744c67.149 0 121.744 54.595 121.744 121.744 0 27.528-9.214 53.904-26.088 75.327l44.92 44.92c28.737-33.517 44.402-75.788 44.402-120.247 0-101.991-82.987-185.035-185.035-185.035s-185.035 82.987-185.035 185.035c0 101.991 82.987 185.035 185.035 185.035 31.905 0 63.291-8.235 90.876-23.842 6.911-3.916 15.664-1.497 19.58 5.471 3.916 6.911 1.497 15.664-5.413 19.58-31.905 18.026-68.186 27.528-105.043 27.528-117.886 0-213.772-95.887-213.772-213.772s95.887-213.772 213.772-213.772c117.886 0 213.772 95.887 213.772 213.772 0 52.119-18.659 101.646-52.81 140.634l23.093 23.093c40.255-45.15 62.312-102.74 62.312-163.727 0-135.854-110.514-246.368-246.368-246.368s-246.368 110.514-246.368 246.368c0 135.854 110.514 246.368 246.368 246.368 46.244 0 91.337-12.9 130.325-37.26 6.738-4.204 15.607-2.131 19.811 4.55 4.204 6.738 2.188 15.607-4.55 19.811-43.595 27.24-93.929 41.637-145.586 41.637-151.691 0-275.105-123.414-275.105-275.105s123.414-275.105 275.105-275.105 275.105 123.414 275.105 275.105c0 68.647-24.994 133.493-70.662 184.114l44.805 44.805c57.59-62.6 89.149-143.513 89.149-228.919 0-186.59-151.806-338.396-338.396-338.396s-338.396 151.806-338.396 338.396c0 186.59 151.806 338.396 338.396 338.396 68.474 0 134.414-20.329 190.737-58.799 6.565-4.492 15.492-2.822 19.984 3.743s2.822 15.492-3.743 19.984c-61.103 41.752-132.686 63.809-206.919 63.809-202.427 0-367.133-164.706-367.133-367.133s164.706-367.133 367.133-367.133c202.427 0 367.133 164.706 367.133 367.133 0 93.007-34.611 181.177-97.557 249.248l23.036 23.036c69.165-74.233 107.117-170.408 107.117-272.283 0-220.395-179.334-399.729-399.729-399.729-220.568-0.115-399.844 179.219-399.844 399.614s179.334 399.729 399.729 399.729c85.981 0 167.874-26.894 236.866-77.688 6.392-4.722 15.376-3.34 20.099 3.052s3.34 15.376-3.052 20.099c-73.945 54.48-161.769 83.332-253.912 83.332-114.488 0-222.065-44.574-302.979-125.488-80.971-80.971-125.545-188.606-125.545-303.036s44.574-222.065 125.488-302.979c80.913-80.913 188.548-125.488 302.979-125.488s222.065 44.574 302.979 125.488c80.913 80.913 125.488 188.548 125.488 302.979 0 109.535-40.946 213.024-115.525 292.67l15.088 15.088h101.415c3.801 0 7.487 1.497 10.193 4.204l107.347 107.347c4.146 4.089 5.356 10.251 3.167 15.664v0zM873.864 723.134h-66.689l36.8 36.8c5.644 5.586 5.644 14.743 0 20.329-5.644 5.644-14.743 5.644-20.329 0l-36.8-36.8v66.689l78.61 78.61v-72.678c0-7.947 6.45-14.397 14.397-14.397h72.678l-78.667-78.552z" />
<glyph unicode="&#xe908;" glyph-name="LapizD" horiz-adv-x="1061" d="M983.802 891.123c-62.6 62.6-164.361 62.6-227.018 0l-642.987-642.987c-0.346-0.346-0.518-0.691-0.806-1.037-0.346-0.461-0.691-0.864-1.037-1.325-0.921-1.382-1.67-2.764-2.188-4.262-0.173-0.518-0.461-0.864-0.518-1.382-0.115-0.173-0.173-0.346-0.23-0.518l-63.061-264.797c-0.288-1.209-0.346-2.419-0.346-3.571 0-0.288-0.115-0.518-0.115-0.691 0-2.073 0.461-4.031 1.152-5.932 0.173-0.461 0.346-0.864 0.518-1.325 0.864-1.9 2.016-3.743 3.571-5.241 1.67-1.728 3.628-3.052 5.817-3.916s4.434-1.267 6.68-1.267c1.382 0 2.764 0.058 4.146 0.403l264.797 63.061c0.518 0.115 0.864 0.346 1.382 0.518 0.576 0.173 1.152 0.403 1.728 0.691 1.267 0.576 2.419 1.325 3.571 2.188 0.461 0.346 0.864 0.576 1.325 0.979 0.173 0.173 0.346 0.23 0.403 0.403l643.218 643.045c62.6 62.6 62.6 164.476 0 226.96v0zM958.636 865.956c44.286-44.402 48.145-114.143 11.576-162.978l-174.554 174.554c48.894 36.627 118.577 32.768 162.978-11.576v0zM870.351 601.102l-176.57 176.57 25.282 25.167 176.454-176.454-25.167-25.282zM134.011 41.331c-6.968 6.968-18.198 6.968-25.282 0l-13.534-13.476 45.553 191.313 78.898 8.754-10.078-91.337c-0.115-0.691 0.173-1.325 0.173-2.016s-0.288-1.325-0.173-1.9c0-0.576 0.346-1.152 0.461-1.67 0.288-1.037 0.518-2.016 0.979-2.937 0.403-1.152 0.979-2.188 1.67-3.225 0.518-0.864 1.152-1.555 1.728-2.246 0.864-0.979 1.843-1.67 2.879-2.476 0.806-0.518 1.555-1.037 2.419-1.497 1.152-0.518 2.476-0.864 3.686-1.152 0.691-0.173 1.209-0.518 1.9-0.576 0.691-0.115 1.325-0.173 2.016-0.173h0.115c0.633 0 1.209 0.115 1.9 0.173l91.337 10.078-8.811-78.898-191.313-45.553 13.534 13.534c6.853 7.026 6.853 18.313-0.058 25.282v0zM357.746 139.061l399.038 399.038c6.968 6.968 6.968 18.313 0 25.282s-18.198 6.968-25.167 0l-399.038-399.038-85.117-9.502 9.502 85.117 398.98 399.038c6.968 6.968 6.968 18.198 0 25.167s-18.198 6.968-25.167 0l-399.096-399.038-56.783-6.277 493.715 493.6 176.512-176.512-493.6-493.715 6.22 56.841zM920.742 651.55l-176.57 176.57 25.282 25.282 176.57-176.57-25.282-25.282z" />
<glyph unicode="&#xe909;" glyph-name="LentD" horiz-adv-x="1498" d="M1206.962 796.215c-39.161 63.579-107.117 101.588-181.695 101.588-10.654 0-21.078-0.806-31.329-2.304 0 0-0.058 0.058-0.058 0.058-18.083 29.313-49.354 46.763-83.678 46.763-54.192 0-98.305-44.114-98.305-98.305v-171.732h-126.927v171.732c0 54.192-44.114 98.305-98.305 98.305-34.266 0-65.479-17.45-83.735-46.878-10.251 1.497-20.675 2.304-31.329 2.304-74.578 0-142.534-37.952-181.695-101.588-0.518-0.864-2.188-3.571-41.695-69.799-6.796-11.403-3.052-26.146 8.293-32.884 11.403-6.796 26.146-3.052 32.884 8.293 32.481 54.48 40.428 67.725 41.349 69.165 30.407 49.297 83.044 78.725 140.864 78.725 91.164 0 165.34-74.175 165.34-165.34v0-236.52c-57.532 93.813-160.963 156.471-278.849 156.471-53.213 0-103.488-12.785-147.948-35.475 11.403 19.177 23.497 39.391 35.59 59.663 6.796 11.403 3.052 26.146-8.35 32.884-11.403 6.796-26.146 3.052-32.884-8.35-50.967-85.348-131.189-213.715-141.325-234.908-20.387-42.616-31.789-90.3-31.789-140.576 0-180.198 146.623-326.821 326.821-326.821s326.821 146.623 326.821 326.821v63.752h126.927v-63.752c0-180.198 146.623-326.821 326.821-326.821s326.821 146.623 326.821 326.821c0 51.658-12.094 100.609-33.517 144.089-9.848 19.926-219.762 365.982-225.118 374.62zM1166.073 770.991c2.879-4.665 62.888-105.274 120.593-202.139-44.459 22.69-94.735 35.475-147.948 35.475-117.828 0-221.317-62.715-278.849-156.471v236.52c0 91.164 74.175 165.34 165.34 165.34 57.878 0.058 110.514-29.428 140.864-78.725zM859.927 844.015c0 27.701 22.575 50.276 50.276 50.276 12.612 0 24.476-4.665 33.517-12.785-32.884-13.649-61.621-35.302-83.793-62.485v24.994zM811.898 624.253v-142.765h-126.927v142.765h126.927zM553.263 881.505c9.099 8.178 20.847 12.785 33.46 12.785 27.701 0 50.276-22.575 50.276-50.276v-24.936c-22.172 27.182-50.909 48.778-83.735 62.427zM358.149-1.285c-153.764 0-278.849 125.085-278.849 278.849s125.142 278.791 278.849 278.791 278.849-125.085 278.849-278.849-125.085-278.791-278.849-278.791zM684.97 389.287v44.171h126.927v-44.171h-126.927zM1138.718-1.285c-153.764 0-278.849 125.085-278.849 278.849s125.085 278.849 278.849 278.849c153.764 0 278.849-125.085 278.849-278.849s-125.085-278.849-278.849-278.849z" />
<glyph unicode="&#xe90a;" glyph-name="People" horiz-adv-x="890" d="M29.774 433.862c9.157-33.287 33.46-78.091 37.145-85.002 4.492-10.366 7.314-21.078 8.35-32.25l34.266-335.92c2.016-20.099 18.889-35.302 39.161-35.302h59.202c20.272 0 37.145 15.204 39.161 35.302l34.266 335.92c1.209 11.345 4.031 22.518 8.696 32.884 4.089 9.33-0.173 20.099-9.33 24.13-9.33 4.089-20.099-0.173-24.13-9.33-6.104-13.994-10.136-28.795-11.576-43.998l-34.266-335.92c-0.23-1.209-1.209-2.246-2.419-2.246h-59.202c-1.209 0-2.419 1.037-2.419 2.246l-34.669 336.15c-1.613 15.204-5.471 30.004-11.576 44.056-0.173 0.576-0.403 1.037-0.806 1.613-0.23 0.403-25.743 46.475-34.266 77.516-9.33 34.669-11.979 110.169-4.262 123.53 6.104 6.104 8.754 8.523 15.031 13.188 16.010 11.748 34.496 21.308 46.475 26.952l41.004-56.38c3.455-4.665 8.926-7.487 14.801-7.487s11.345 2.822 14.801 7.487l49.7 68.359c5.874 8.12 4.031 19.696-4.031 25.743-8.12 5.874-19.696 4.089-25.743-4.031l-34.899-47.857-34.496 47.684c-4.895 6.911-13.994 9.33-21.711 6.277-1.44-0.576-37.548-15.204-67.553-37.318-8.523-6.277-12.555-10.136-19.696-17.219-26.088-26.146-11.691-134.069-5.010-158.774v0zM176.685 670.958h3.455c23.554 0.633 43.423 9.099 57.59 25.167 30.235 34.093 25.973 90.876 25.167 97.96-3.052 62.715-46.648 84.772-82.987 84.772h-3.225c-36.339 0-79.704-22.287-82.987-84.772-0.633-7.084-5.068-63.924 25.167-97.96 14.397-16.010 34.266-24.764 57.82-25.167v0zM130.44 790.859v1.209c2.016 43.826 29.831 50.333 46.244 50.333h3.052c16.413 0 44.229-6.508 46.244-50.333v-1.037c1.44-12.958 1.037-50.909-16.24-70.374-7.487-8.523-17.853-12.785-31.444-12.785h-0.403c-13.591 0.23-23.957 4.262-31.444 12.785-17.047 19.293-17.277 57.244-16.010 70.202v0zM602.675 373.796c-9.33-4.031-13.591-15.031-9.33-24.13 4.665-10.539 7.487-21.481 8.754-32.884l34.266-335.92c2.016-20.099 18.832-35.302 39.161-35.302h59.26c20.272 0 37.145 15.204 39.161 35.302l34.266 335.92c1.209 11.172 3.859 21.884 8.293 32.25 3.628 6.68 28.219 51.543 37.145 85.002 6.68 24.764 21.308 132.686-4.665 158.659-7.084 7.084-11.172 10.942-19.696 17.219-30.004 22.114-65.94 36.742-67.553 37.318-7.89 3.225-16.816 0.576-21.711-6.277l-34.899-47.857-35.072 47.684c-5.874 8.293-17.45 9.963-25.743 4.031-8.12-5.874-9.963-17.45-4.031-25.743l49.7-68.359c3.455-4.665 8.926-7.487 14.801-7.487s11.345 2.822 14.801 7.487l41.004 56.38c11.979-5.701 30.407-15.204 46.475-26.952 6.104-4.492 8.754-7.084 15.031-13.188 7.717-13.418 5.068-88.861-4.262-123.53-8.523-31.041-34.093-77.055-34.266-77.516-0.23-0.403-0.633-1.037-0.806-1.613-6.104-13.994-10.136-28.795-11.576-43.998l-34.266-335.92c-0.173-1.209-1.209-2.246-2.419-2.246h-59.26c-1.209 0-2.419 1.037-2.419 2.246l-34.266 335.92c-1.613 15.204-5.471 30.004-11.576 43.998-4.262 9.502-14.973 13.534-24.303 9.502v0zM703.053 670.958h3.455c23.497 0.403 43.423 9.099 57.82 25.167 30.235 34.093 25.973 90.876 25.167 97.96-3.052 62.715-46.475 84.772-82.987 84.772h-3.225c-36.339 0-79.704-22.287-82.987-84.772-0.633-7.084-5.068-63.924 25.167-97.96 14.225-16.010 34.093-24.533 57.59-25.167v0zM656.809 790.859v1.209c2.016 43.826 29.831 50.333 46.244 50.333h3.052c16.413 0 44.229-6.508 46.244-50.333v-1.037c1.44-12.958 1.037-50.909-16.24-70.374-7.487-8.523-17.853-12.555-31.444-12.785h-0.403c-13.591 0.23-23.957 4.262-31.444 12.785-16.989 19.293-17.219 57.244-16.010 70.202v0zM289.272 633.237c-27.355-27.413-11.979-141.613-4.665-167.989 9.733-35.475 35.706-83.39 39.564-90.243 4.838-11.172 7.89-22.748 9.157-34.727l36.512-358.034c2.016-20.905 19.465-36.512 40.543-36.512h63.061c20.905 0 38.355 15.837 40.543 36.512l36.569 358.092c1.209 11.979 4.262 23.727 9.099 34.727 3.859 7.084 29.831 54.768 39.564 90.243 7.084 26.376 22.748 140.576-4.665 167.989-7.487 7.487-11.748 11.576-20.675 18.256-31.847 23.497-70.202 38.931-71.814 39.737-7.89 3.225-16.816 0.633-21.711-6.277l-38.758-52.522-38.124 52.522c-4.895 6.911-13.994 9.33-21.711 6.277-1.613-0.633-39.737-16.24-71.814-39.737-8.926-6.738-13.418-10.827-20.675-18.313v0zM315.648 607.667c6.68 6.68 9.502 9.33 16.24 14.225 17.45 12.958 37.721 23.324 50.736 29.428l44.229-60.872c3.455-4.665 8.926-7.487 14.801-7.487s11.345 2.822 14.801 7.487l44.171 60.872c12.785-6.104 33.056-16.413 50.736-29.428 6.68-4.895 9.502-7.487 16.24-14.225 8.523-13.821 5.874-95.138-4.492-132.686-9.099-33.287-36.339-82.353-36.742-82.756-0.173-0.403-0.633-1.037-0.806-1.613-6.508-14.801-10.769-30.407-12.382-46.648l-36.512-358.034c-0.23-2.016-1.843-3.455-3.859-3.455h-63.061c-2.016 0-3.628 1.44-3.859 3.455l-36.512 358.034c-1.613 16.010-5.701 31.847-12.382 46.648-0.23 0.576-0.403 1.037-0.806 1.613-0.23 0.403-27.585 49.7-36.742 82.987-9.733 37.318-12.324 118.692-3.801 132.456v0zM439.754 719.045h3.628c25.167 0.403 45.438 9.33 60.642 26.549 32.077 35.878 27.182 96.347 26.549 103.661-3.225 65.94-48.894 89.264-87.248 89.264h-3.628c-38.124 0-83.966-23.324-87.248-89.264-0.576-7.314-5.471-67.553 26.549-103.431 15.319-17.219 35.821-26.146 60.757-26.779v0zM389.248 845.857v1.209c2.246 49.469 36.109 54.768 50.506 54.768h3.455c14.397 0 48.26-5.298 50.506-54.768v-1.037c1.44-13.994 1.209-54.998-17.45-75.845-8.293-9.33-19.696-13.994-34.496-13.994h-0.576c-14.801 0.23-26.146 4.665-34.496 13.994-18.659 20.675-18.832 61.678-17.45 75.673v0z" />
<glyph unicode="&#xe90b;" horiz-adv-x="1073" d="M1031.544 446.877c0-273.944-222.075-496.019-496.019-496.019s-496.019 222.075-496.019 496.019c0 273.944 222.075 496.019 496.019 496.019s496.019-222.075 496.019-496.019z" />
<glyph unicode="&#xe90c;" horiz-adv-x="1073" d="M275.624 461.735c6.277-22.978 23.093-53.904 25.627-58.684 3.11-7.141 5.068-14.57 5.759-22.287l23.669-231.971c1.382-13.879 13.015-24.36 27.067-24.36h40.889c13.994 0 25.627 10.481 27.010 24.36l23.669 231.971c0.864 7.832 2.822 15.549 6.047 22.69 2.822 6.45-0.115 13.879-6.45 16.643-6.45 2.822-13.879-0.115-16.643-6.45-4.204-9.675-7.026-19.868-8.005-30.407l-23.669-231.971c-0.115-0.864-0.864-1.555-1.67-1.555h-40.889c-0.864 0-1.67 0.691-1.67 1.555l-23.957 232.086c-1.094 10.481-3.801 20.732-8.005 30.407-0.115 0.403-0.288 0.691-0.576 1.094-0.115 0.288-17.795 32.077-23.669 53.501-6.45 23.957-8.235 76.076-2.937 85.29 4.204 4.204 6.047 5.874 10.366 9.099 11.057 8.12 23.784 14.685 32.077 18.659l28.276-38.931c2.361-3.225 6.162-5.183 10.251-5.183s7.832 1.958 10.251 5.183l34.323 47.223c4.089 5.586 2.822 13.591-2.822 17.795-5.586 4.089-13.591 2.822-17.795-2.822l-24.072-33.056-23.9 32.999c-3.34 4.78-9.675 6.45-14.973 4.319-0.979-0.403-25.915-10.481-46.648-25.8-5.874-4.319-8.696-7.026-13.591-11.921-17.91-17.853-7.947-92.374-3.34-109.478v0z" />
<glyph unicode="&#xe90d;" horiz-adv-x="1073" d="M377.039 625.52h2.361c16.24 0.403 30.004 6.277 39.794 17.392 20.847 23.554 17.91 62.773 17.392 67.668-2.073 43.307-32.193 58.569-57.302 58.569h-2.246c-25.051 0-55.056-15.434-57.302-58.569-0.403-4.895-3.513-44.114 17.392-67.668 9.905-11.115 23.669-17.104 39.91-17.392v0zM345.077 708.276v0.806c1.382 30.235 20.559 34.727 31.962 34.727h2.073c11.345 0 30.522-4.492 31.962-34.727v-0.691c0.979-8.984 0.691-35.13-11.23-48.606-5.183-5.874-12.324-8.811-21.711-8.811h-0.288c-9.387 0.115-16.528 2.937-21.711 8.811-11.748 13.361-11.863 39.564-11.057 48.49v0z" />
<glyph unicode="&#xe90e;" horiz-adv-x="1073" d="M671.206 420.328c-6.45-2.822-9.387-10.366-6.45-16.643 3.225-7.256 5.183-14.858 6.047-22.69l23.669-231.971c1.382-13.879 13.015-24.36 27.010-24.36h40.889c13.994 0 25.627 10.481 27.010 24.36l23.669 231.971c0.864 7.717 2.649 15.146 5.759 22.287 2.534 4.607 19.465 35.59 25.627 58.684 4.607 17.104 14.685 91.625-3.225 109.535-4.895 4.895-7.717 7.544-13.591 11.921-20.732 15.261-45.553 25.339-46.648 25.8-5.471 2.246-11.633 0.403-14.973-4.319l-24.072-33.056-24.245 32.941c-4.089 5.759-12.036 6.853-17.795 2.822-5.586-4.089-6.853-12.036-2.822-17.795l34.323-47.223c2.361-3.225 6.162-5.183 10.251-5.183s7.832 1.958 10.251 5.183l28.276 38.931c8.293-3.916 21.020-10.481 32.077-18.659 4.204-3.11 6.047-4.895 10.366-9.099 5.298-9.272 3.513-61.333-2.937-85.29-5.874-21.423-23.554-53.213-23.669-53.501s-0.403-0.691-0.576-1.094c-4.204-9.675-7.026-19.868-8.005-30.407l-23.669-231.971c-0.115-0.864-0.864-1.555-1.67-1.555h-40.889c-0.864 0-1.67 0.691-1.67 1.555l-23.669 231.971c-1.094 10.481-3.801 20.732-8.005 30.407-2.764 6.45-10.193 9.214-16.643 6.45v0z" />
<glyph unicode="&#xe90f;" horiz-adv-x="1073" d="M740.544 625.52h2.361c16.24 0.288 29.947 6.277 39.91 17.392 20.847 23.554 17.91 62.773 17.392 67.668-2.073 43.307-32.077 58.569-57.302 58.569h-2.246c-25.051 0-55.056-15.434-57.302-58.569-0.403-4.895-3.513-44.114 17.392-67.668 9.79-11.115 23.554-16.989 39.794-17.392v0zM708.582 708.276v0.806c1.382 30.235 20.617 34.727 31.962 34.727h2.073c11.345 0 30.522-4.492 31.962-34.727v-0.691c0.979-8.984 0.691-35.13-11.23-48.606-5.183-5.874-12.324-8.696-21.711-8.811h-0.288c-9.387 0.115-16.528 2.937-21.711 8.811-11.748 13.361-11.863 39.564-11.057 48.49v0z" />
<glyph unicode="&#xe910;" horiz-adv-x="1073" d="M454.785 599.489c-18.889-18.889-8.235-97.787-3.225-115.985 6.738-24.533 24.648-57.59 27.297-62.312 3.34-7.717 5.471-15.664 6.277-23.957l25.224-247.232c1.382-14.397 13.476-25.224 27.989-25.224h43.538c14.455 0 26.491 10.942 27.989 25.224l25.224 247.232c0.864 8.293 2.937 16.413 6.277 23.957 2.649 4.895 20.617 37.836 27.297 62.312 4.895 18.198 15.664 97.096-3.225 115.985-5.183 5.183-8.12 8.005-14.282 12.612-21.999 16.24-48.49 26.894-49.585 27.47-5.471 2.246-11.633 0.403-14.973-4.319l-26.779-36.281-26.318 36.281c-3.34 4.78-9.675 6.45-14.973 4.319-1.094-0.403-27.47-11.23-49.585-27.47-6.047-4.665-9.157-7.487-14.167-12.612v0zM472.983 581.809c4.607 4.607 6.565 6.45 11.23 9.79 12.036 8.984 26.030 16.125 35.014 20.329l30.522-42.040c2.361-3.225 6.162-5.183 10.251-5.183s7.832 1.958 10.251 5.183l30.522 42.040c8.811-4.204 22.805-11.345 35.014-20.329 4.607-3.34 6.565-5.183 11.23-9.79 5.874-9.502 4.089-65.71-3.11-91.625-6.277-22.978-25.051-56.898-25.339-57.129-0.115-0.288-0.403-0.691-0.576-1.094-4.492-10.251-7.429-21.020-8.523-32.25l-25.224-247.232c-0.115-1.382-1.267-2.361-2.649-2.361h-43.595c-1.382 0-2.534 0.979-2.649 2.361l-25.224 247.232c-1.094 11.057-3.916 21.999-8.523 32.25-0.115 0.403-0.288 0.691-0.576 1.094-0.173 0.288-19.062 34.323-25.339 57.302-6.738 25.743-8.581 81.95-2.707 91.452v0z" />
<glyph unicode="&#xe911;" horiz-adv-x="1073" d="M558.734 658.691h2.534c17.392 0.288 31.386 6.45 41.868 18.371 22.114 24.764 18.774 66.516 18.371 71.584-2.246 45.553-33.747 61.621-60.239 61.621h-2.534c-26.318 0-57.993-16.125-60.239-61.621-0.403-5.068-3.801-46.648 18.371-71.469 10.481-11.863 24.591-18.026 41.868-18.486v0zM523.835 746.285v0.864c1.555 34.151 24.936 37.836 34.899 37.836h2.361c9.963 0 33.344-3.628 34.899-37.836v-0.691c0.979-9.675 0.864-37.952-12.036-52.407-5.759-6.45-13.591-9.675-23.842-9.675h-0.403c-10.251 0.115-18.083 3.225-23.842 9.675-12.9 14.225-13.015 42.559-12.036 52.234v0z" />
<glyph unicode="&#xe912;" horiz-adv-x="1043" d="M1022.963 445.61c0-272.799-221.147-493.946-493.946-493.946s-493.946 221.147-493.946 493.946c0 272.799 221.147 493.946 493.946 493.946s493.946-221.147 493.946-493.946z" />
<glyph unicode="&#xe913;" horiz-adv-x="1043" d="M619.894 740.699h-330.622v-612.119h479.491v463.308l-148.869 148.811zM625.883 705.857l107.98-107.98h-107.98v107.98zM309.659 149.024v571.231h295.838v-142.822h142.822v-428.409h-438.66z" />
<glyph unicode="&#xe914;" horiz-adv-x="1043" d="M656.521 526.408h-163.266c-5.644 0-10.193-4.55-10.193-10.193s4.607-10.136 10.193-10.136h163.266c5.644 0 10.193 4.55 10.193 10.136 0 5.701-4.55 10.193-10.193 10.193v0z" />
<glyph unicode="&#xe915;" horiz-adv-x="1043" d="M456.34 554.857l-43.883-35.13-13.937 13.937c-3.974 3.974-10.481 3.974-14.455 0s-3.974-10.481 0-14.455l20.444-20.387c2.016-2.016 4.607-2.995 7.256-2.995 2.246 0 4.492 0.749 6.335 2.246l51.024 40.773c4.434 3.513 5.125 9.963 1.613 14.34-3.628 4.434-10.021 5.125-14.397 1.67v0z" />
<glyph unicode="&#xe916;" horiz-adv-x="1043" d="M656.521 414.224h-163.266c-5.644 0-10.193-4.55-10.193-10.136 0-5.701 4.607-10.193 10.193-10.193h163.266c5.644 0 10.193 4.55 10.193 10.193 0 5.586-4.55 10.136-10.193 10.136v0z" />
<glyph unicode="&#xe917;" horiz-adv-x="1043" d="M456.34 442.615l-43.883-35.13-13.937 13.937c-3.974 3.974-10.481 3.974-14.455 0s-3.974-10.424 0-14.397l20.444-20.444c2.016-2.016 4.607-2.995 7.256-2.995 2.246 0 4.492 0.749 6.335 2.246l51.024 40.773c4.434 3.513 5.125 9.963 1.613 14.34-3.628 4.434-10.021 5.183-14.397 1.67v0z" />
<glyph unicode="&#xe918;" horiz-adv-x="1043" d="M656.521 302.039h-163.266c-5.644 0-10.193-4.607-10.193-10.193 0-5.644 4.607-10.193 10.193-10.193h163.266c5.644 0 10.193 4.55 10.193 10.193 0 5.586-4.55 10.193-10.193 10.193v0z" />
<glyph unicode="&#xe919;" horiz-adv-x="1043" d="M456.34 330.373l-43.883-35.13-13.937 13.937c-3.974 3.974-10.481 3.974-14.455 0s-3.974-10.424 0-14.397l20.444-20.444c2.016-2.016 4.607-2.995 7.256-2.995 2.246 0 4.492 0.749 6.335 2.246l51.024 40.773c4.434 3.571 5.125 9.963 1.613 14.34-3.628 4.492-10.021 5.183-14.397 1.67v0z" />
<glyph unicode="&#xe91a;" horiz-adv-x="1040" d="M1012.655 442.385c0-273.085-221.379-494.464-494.464-494.464s-494.464 221.379-494.464 494.464c0 273.085 221.379 494.464 494.464 494.464s494.464-221.379 494.464-494.464z" />
<glyph unicode="&#xe91b;" horiz-adv-x="1040" d="M815.526 727.165c-40.025 40.025-105.043 40.025-145.068 0l-410.959-410.902c-0.23-0.23-0.346-0.461-0.518-0.691-0.23-0.288-0.461-0.576-0.691-0.864-0.576-0.864-1.037-1.785-1.382-2.707-0.115-0.346-0.288-0.576-0.346-0.921-0.058-0.115-0.115-0.23-0.173-0.346l-40.313-169.198c-0.173-0.806-0.23-1.555-0.23-2.304 0-0.173-0.058-0.346-0.058-0.461 0-1.325 0.288-2.592 0.749-3.801 0.115-0.288 0.23-0.576 0.346-0.864 0.576-1.209 1.267-2.419 2.304-3.34 1.094-1.094 2.361-1.958 3.743-2.534s2.822-0.806 4.262-0.806c0.864 0 1.785 0.058 2.649 0.288l169.198 40.313c0.346 0.058 0.576 0.23 0.921 0.346 0.403 0.115 0.749 0.288 1.094 0.461 0.806 0.403 1.555 0.864 2.304 1.382 0.288 0.23 0.576 0.403 0.864 0.633 0.115 0.115 0.23 0.173 0.288 0.288l411.017 410.959c39.967 39.967 39.967 105.101 0 145.068v0zM799.458 711.040c28.334-28.392 30.753-72.966 7.371-104.18l-111.551 111.551c31.271 23.439 75.788 20.963 104.18-7.371v0zM743.021 541.785l-112.876 112.818 16.125 16.067 112.818-112.818-16.067-16.067zM272.456 184.038c-4.434 4.434-11.633 4.434-16.125 0l-8.638-8.638 29.083 122.263 50.391 5.586-6.45-58.338c-0.058-0.461 0.115-0.864 0.115-1.267 0-0.461-0.173-0.864-0.115-1.209 0-0.403 0.23-0.749 0.288-1.037 0.173-0.691 0.346-1.267 0.633-1.9 0.288-0.749 0.633-1.382 1.037-2.073 0.346-0.576 0.749-0.979 1.094-1.44 0.576-0.633 1.152-1.037 1.843-1.555 0.518-0.346 0.979-0.633 1.555-0.921 0.749-0.346 1.555-0.576 2.361-0.749 0.461-0.115 0.749-0.346 1.209-0.403s0.864-0.115 1.267-0.115h0.058c0.403 0 0.806 0.058 1.209 0.115l58.396 6.45-5.644-50.391-122.263-29.083 8.638 8.638c4.492 4.377 4.492 11.633 0.058 16.067v0zM415.451 246.465l255.007 255.007c4.434 4.434 4.434 11.691 0 16.125s-11.633 4.434-16.067 0l-255.007-255.007-54.422-6.047 6.047 54.422 255.007 255.007c4.434 4.434 4.434 11.633 0 16.067s-11.633 4.434-16.067 0l-255.064-255.007-36.281-4.031 315.476 315.476 112.818-112.818-315.476-315.476 4.031 36.281zM775.213 574.035l-112.876 112.876 16.125 16.125 112.818-112.876-16.067-16.125z" />
<glyph unicode="&#xe91c;" horiz-adv-x="1057" d="M1019.969 442.5c0-271.24-219.884-491.124-491.124-491.124s-491.124 219.884-491.124 491.124c0 271.24 219.884 491.124 491.124 491.124s491.124-219.884 491.124-491.124z" />
<glyph unicode="&#xe91d;" horiz-adv-x="1057" d="M793.181 540.518c-9.272 2.649-18.947-2.707-21.596-11.979s2.707-18.947 11.979-21.596c79.646-22.748 129.116-55.804 129.116-86.212 0-22.23-27.067-46.648-74.233-66.977-51.888-22.345-125.545-38.758-207.438-46.129l-71.469 0.979c-0.058 0-0.173 0-0.23 0-9.502 0-17.334-7.659-17.45-17.219-0.115-9.617 7.544-17.565 17.219-17.68l72.39-0.979c0.058 0 0.173 0 0.23 0 0.518 0 1.037 0 1.555 0.058 85.866 7.659 163.612 24.994 219.013 48.894 78.783 33.978 95.311 72.62 95.311 99.054 0 48.778-54.825 91.279-154.398 119.786v0z" />
<glyph unicode="&#xe91e;" horiz-adv-x="1057" d="M429.157 375.063c-6.22 7.371-17.219 8.293-24.591 2.073s-8.293-17.219-2.073-24.591l39.046-46.129c-82.353 6.277-156.932 21.366-211.757 43.019-53.846 21.251-84.772 47.223-84.772 71.296 0 27.931 41.407 58.050 110.802 80.568 9.157 2.995 14.167 12.785 11.23 21.999-2.995 9.157-12.842 14.167-21.999 11.23-40.37-13.073-72.332-28.68-95.138-46.302-26.376-20.444-39.794-43.135-39.794-67.495 0-40.313 36.972-76.191 106.829-103.776 56.841-22.402 133.032-38.182 216.767-44.92l-34.784-38.585c-6.45-7.141-5.874-18.198 1.267-24.648 3.34-2.995 7.487-4.492 11.691-4.492 4.78 0 9.502 1.958 12.958 5.759l63.464 70.374c2.879 3.225 4.492 7.371 4.492 11.691v1.325c0 4.146-1.44 8.12-4.146 11.288l-59.49 70.317z" />
<glyph unicode="&#xe91f;" horiz-adv-x="1057" d="M724.189 597.646h41.119c5.529 0 10.078 4.492 10.078 10.078v41.119c0 5.529-4.492 10.078-10.078 10.078h-41.119c-5.529 0-10.078-4.492-10.078-10.078v-41.119c0-5.586 4.492-10.078 10.078-10.078v0zM734.209 638.765h21.020v-21.020h-21.020v21.020z" />
<glyph unicode="&#xe920;" horiz-adv-x="1057" d="M288.524 470.201c9.272-4.031 22.114-6.738 34.611-6.738 22.518 0 35.014 10.539 35.014 25.397 0 19.465-19.638 27.816-43.595 27.816h-6.45v25.915h4.665c17.162 0.288 39.276 5.644 39.276 22.69 0 12.67-10.712 20.272-27.125 20.272-10.366 0-20.732-2.995-29.255-7.026l-6.047 26.722c9.617 4.607 28.564 9.157 47.857 9.157 40.716 0 61.045-19.984 61.045-42.386 0-17.565-12.842-32.135-33.229-39.449v-0.518c22.518-5.644 39.622-20.79 39.622-44.574 0-26.722-27.125-52.925-77.516-52.925-18.947 0-35.36 3.513-45.726 7.832l6.853 27.816z" />
<glyph unicode="&#xe921;" horiz-adv-x="1057" d="M552.054 585.841c-5.701-0.288-12.151-0.806-19.293-1.9-30.695-5.125-46.072-24.591-51.773-46.705h1.094c8.235 8.35 20.329 14.052 35.706 14.052 31.444 0 52.522-21.366 52.522-54.537 0-30.81-20.732-62.139-66.055-62.139-43.941 0-70.72 28.91-70.72 72.39 0 38.355 16.759 64.558 38.239 81.835 14.973 12.67 37.491 21.078 56.783 23.784 11.057 1.613 18.544 1.613 23.554 1.9v-28.68zM524.238 496.98c-0.346 14.858-6.796 28.91-21.769 28.91-7.487 0-14.628-3.801-18.947-11.863-1.44-1.9-2.476-7.314-2.476-15.376 0-22.978 8.581-38.355 22.518-38.355 15.664-0.058 20.675 15.607 20.675 36.685z" />
<glyph unicode="&#xe922;" horiz-adv-x="1057" d="M721.367 525.314c0-62.945-30.35-90.761-67.841-90.761-50.736 0-67.841 43.998-67.841 89.149 0 50.506 21.423 90.761 69.626 90.761 53.558 0 66.055-47.281 66.055-89.149zM632.794 524.508c-0.691-41.061 6.047-59.663 21.769-59.663 14.628 0 19.638 19.465 19.638 59.663 0 37.548-4.665 59.663-19.638 59.663-14.628 0.058-22.114-18.889-21.769-59.663z" />
<glyph unicode="&#xe923;" glyph-name="facebook" horiz-adv-x="1148" d="M591.246-64c-180.544 0-330.767 0-480.991 0-71.666 0-103.365 24.808-110.256 89.583-1.378 8.269-1.378 16.538-1.378 26.186 0 267.37 0 533.362 0 800.732 0 20.673 1.378 39.968 12.404 59.262 16.538 26.186 39.968 42.724 74.423 46.859 16.538 0 31.699 1.378 48.237 1.378 293.556 0 588.49 0 882.046 0 28.942 0 59.262 0 85.448-15.16 24.808-13.782 39.968-34.455 42.724-60.641 1.378-15.16 2.756-28.942 2.756-44.102 0-261.857 0-523.715 0-786.95 0-27.564 0-53.75-17.917-78.557-24.808-34.455-63.397-41.346-104.743-39.968-154.358 4.135-308.716 0-432.754 1.378zM759.386 237.825c1.378 0 1.378 0 0 0 0 49.615 1.378 97.852 0 147.467 0 17.917 5.513 23.429 26.186 22.051 31.699-1.378 62.019 0 93.717-1.378 15.16 0 22.051 5.513 22.051 19.295 0 27.564 0 56.506 0 84.070 0 13.782-6.891 19.295-22.051 19.295-17.917 0-35.833 0-55.128 0-73.044 0-73.044 0-64.775 66.153 2.756 20.673 15.16 34.455 37.211 39.968 26.186 5.513 52.371 5.513 77.179 5.513 19.295 0 26.186 6.891 26.186 23.429-1.378 24.808-1.378 49.615 0 74.423 1.378 19.295-8.269 26.186-28.942 24.808-50.993-1.378-104.743-2.756-157.114-9.647-67.532-8.269-99.23-38.59-107.499-99.23-5.513-34.455-5.513-70.288-5.513-104.743 0-13.782-4.135-20.673-22.051-20.673-23.429 0-52.371 9.647-67.532-5.513-13.782-15.16-4.135-39.968-4.135-60.641-1.378-55.128 0-56.506 62.019-55.128 24.808 0 33.077-6.891 33.077-28.942-1.378-93.717 0-186.057-1.378-279.774 0-24.808 8.269-31.699 34.455-30.32 31.699 1.378 62.019 1.378 93.717 0 23.429-1.378 33.077 5.513 31.699 27.564-1.378 48.237-1.378 95.096-1.378 141.954z" />
<glyph unicode="&#xe924;" glyph-name="In" horiz-adv-x="1326" d="M663.87 960c155.074 0 308.866 0 463.94 0 105.091 0 197.367-71.77 197.367-158.919 1.282-170.453 0-342.188 0-512.641 0-64.080 0-129.442 0-193.522-1.282-96.12-90.994-160.2-216.591-160.2-292.205 0-583.129 3.845-875.334-2.563-140.976-3.845-234.533 66.643-234.533 176.861 0 226.844 0 452.406 0 679.249 0 106.373 82.023 169.171 217.872 170.453 148.666 0 297.332 0 445.997 0 1.282 0 1.282 1.282 1.282 1.282zM686.939 524.255c-14.098 44.856-14.098 44.856-82.023 44.856-23.069 0-47.419-1.282-70.488 0-38.448 2.563-51.264-8.971-49.982-38.448 1.282-114.063 0-228.125 1.282-342.188 0-25.632-14.098-57.672 5.126-75.615 20.506-19.224 62.798-5.126 96.12-6.408 11.534 0 23.069-1.282 34.603-1.282 37.166 0 55.109 8.971 53.827 42.293-2.563 79.459 0 158.919-1.282 237.096-1.282 32.040 17.942 53.827 49.982 70.488 99.965 49.982 217.872 7.69 230.688-83.304 1.282-12.816 1.282-24.35 1.282-37.166 0-64.080 0-129.442 0-193.522 0-15.379 0-30.758 26.914-32.040 41.011-1.282 82.023-2.563 121.752-2.563 26.914 0 42.293 8.971 41.011 33.322-1.282 90.994 1.282 183.269-1.282 274.263-1.282 48.701-29.477 88.431-82.023 117.907-99.965 53.827-258.884 51.264-375.509-7.69zM215.309 342.268c0 0 0 0 0 0 0-67.925 0-135.85 0-202.493 0-20.506 8.971-32.040 37.166-30.758 38.448 1.282 75.615 0 114.063 0 24.35 0 38.448 7.69 38.448 28.195 0 137.131 0 272.981 0 410.113 0 19.224-11.534 29.477-37.166 29.477-32.040 0-64.080-1.282-96.12 0-41.011 2.563-57.672-10.253-56.39-42.293 1.282-66.643 0-129.442 0-192.24zM408.831 710.088c0 39.73-46.138 75.615-97.402 75.615-52.546 0-96.12-33.322-96.12-71.77 0-41.011 44.856-78.178 94.839-78.178 52.546 0 98.683 35.885 98.683 74.333z" />
<glyph unicode="&#xe925;" glyph-name="Mail" horiz-adv-x="2086" d="M1745.217 16.724c-11.416-14.405-21.88-12.639-36.285-1.903-159.546 119.319-319.363 238.095-479.452 356.463-14.541 10.736-16.851 18.482-2.582 31.664 60.883 56.398 120.95 113.612 181.425 170.418 77.598 72.978 155.197 145.82 232.659 218.798 26.364 24.87 52.457 50.147 78.686 75.152 7.203 6.931 15.085 12.095 25.549 11.959 0-287.427 0-574.989 0-862.552zM291.096 879.412c12.91 0.679 20.385-8.29 28.539-16.036 97.983-92.411 195.967-184.823 293.95-277.234 64.008-60.203 128.017-120.271 192.161-180.338 19.569-18.346 19.569-20.521-3.397-37.644-148.945-110.622-297.755-221.244-446.7-332.002-9.649-7.203-20.385-13.454-28.675-22.016-13.59-13.862-24.734-11.008-35.877 2.31 0 287.834 0 575.397 0 862.96zM1020.738 947.361c196.918 0 393.972 0 590.889-0.136 13.59 0 27.316-1.495 40.906-2.854 7.746-0.815 18.075 0.408 20.521-9.105 2.174-7.882-6.523-12.231-11.687-17.123-59.66-56.67-119.591-113.204-179.387-169.602-116.33-109.535-232.252-219.477-349.125-328.468-74.745-69.716-155.74-69.716-230.077 0-148.266 139.161-295.988 279.001-443.847 418.569-28.131 26.636-56.398 53.001-84.393 79.773-5.028 4.756-13.862 9.241-11.416 17.123 2.718 9.241 13.046 7.882 20.793 8.833 11.959 1.359 24.054 2.718 36.149 2.718 200.315 0.408 400.495 0.272 600.674 0.272zM1017.885-51.361c-197.869 0-395.602-0.136-593.472 0.136-16.851 0-33.839 2.174-50.554 4.213-5.844 0.679-13.998 1.495-15.085 9.377-0.951 6.523 5.572 9.241 10.057 12.503 44.575 33.431 89.014 66.998 133.725 100.294 113.748 84.801 227.903 169.194 341.107 254.675 16.851 12.775 28.131 13.318 46.478 1.495 81.947-52.865 166.341-58.165 249.511-2.854 23.239 15.493 38.052 13.59 60.475-3.397 152.887-116.194 307.404-230.485 461.106-345.592 6.659-4.892 19.298-7.882 16.444-18.21-2.446-9.241-14.269-8.833-22.967-9.649-12.775-1.223-25.685-2.99-38.459-2.99-199.636 0-399 0-598.364 0z" />
<glyph unicode="&#xe926;" horiz-adv-x="1073" d="M1029.125 443.364c0-268.314-217.512-485.826-485.826-485.826s-485.826 217.512-485.826 485.826c0 268.314 217.512 485.826 485.826 485.826s485.826-217.512 485.826-485.826z" />
<glyph unicode="&#xe927;" horiz-adv-x="1073" d="M776.019 617.976c-19.58 31.732-53.501 50.679-90.704 50.679-5.298 0-10.539-0.403-15.664-1.152 0 0 0 0.058 0 0.058-9.042 14.628-24.648 23.381-41.752 23.381-27.067 0-49.066-21.999-49.066-49.066v-85.751h-63.406v85.693c0 27.067-21.999 49.066-49.066 49.066-17.104 0-32.711-8.696-41.81-23.381-5.125 0.749-10.309 1.152-15.664 1.152-37.26 0-71.123-18.947-90.704-50.679-0.288-0.461-1.094-1.785-20.79-34.842-3.398-5.701-1.555-13.015 4.146-16.413s13.015-1.555 16.413 4.146c16.24 27.182 20.156 33.805 20.617 34.554 15.146 24.591 41.464 39.334 70.317 39.334 45.496 0 82.526-37.030 82.526-82.526v0-118.059c-28.68 46.82-80.337 78.091-139.194 78.091-26.549 0-51.658-6.392-73.83-17.68 5.701 9.56 11.691 19.638 17.738 29.774 3.398 5.701 1.555 13.015-4.146 16.413s-13.015 1.555-16.413-4.146c-25.455-42.789-65.479-106.829-70.547-117.425-10.193-21.251-15.895-45.093-15.895-70.202 0-89.955 73.196-163.151 163.151-163.151s163.151 73.254 163.151 163.209v31.847h63.349v-31.847c0-89.955 73.196-163.151 163.151-163.151s163.151 73.196 163.151 163.151c0 25.8-6.047 50.218-16.759 71.929-4.895 9.905-109.651 182.674-112.3 186.993zM755.575 605.363c1.44-2.361 31.386-52.579 60.181-100.897-22.172 11.288-47.281 17.68-73.83 17.68-58.799 0-110.457-31.329-139.194-78.091v118.059c0 45.496 37.030 82.526 82.526 82.526 28.852 0.058 55.171-14.628 70.317-39.276zM602.732 641.818c0 13.821 11.288 25.109 25.109 25.109 6.277 0 12.209-2.304 16.701-6.392-16.413-6.796-30.753-17.622-41.81-31.156v12.439zM578.775 532.11v-71.296h-63.349v71.296h63.349zM449.659 660.534c4.55 4.089 10.424 6.392 16.701 6.392 13.821 0 25.109-11.288 25.109-25.109v-12.439c-11.057 13.534-25.397 24.36-41.81 31.156zM352.275 219.859c-76.767 0-139.194 62.427-139.194 139.194s62.427 139.194 139.194 139.194 139.194-62.427 139.194-139.194-62.427-139.194-139.194-139.194zM515.427 414.857v22.057h63.349v-22.057h-63.349zM741.926 219.859c-76.767 0-139.194 62.427-139.194 139.194s62.427 139.194 139.194 139.194c76.767 0 139.194-62.427 139.194-139.194s-62.427-139.194-139.194-139.194z" />
<glyph unicode="&#xe928;" horiz-adv-x="1040" d="M1011.33 441.982c0-273.912-222.049-495.961-495.961-495.961s-495.961 222.049-495.961 495.961c0 273.912 222.049 495.961 495.961 495.961s495.961-222.049 495.961-495.961z" />
<glyph unicode="&#xe929;" horiz-adv-x="1040" d="M836.258 513.969c-1.209 3.283-2.822 6.565-4.953 9.905-0.058 0.058-0.115 0.173-0.115 0.23l-1.555 2.361c-0.058 0.058-0.058 0.115-0.115 0.173-0.518 0.749-1.094 1.497-1.67 2.246-1.209 1.497-2.419 2.937-3.743 4.204l-3.398 3.398 3.11 3.628c2.073 2.476 3.859 5.356 5.701 9.502 0.058 0.058 0.058 0.115 0.115 0.23 0.806 1.9 1.555 3.743 1.958 5.529 0.518 2.073 0.921 4.146 1.267 6.335 1.267 8.466 0.173 17.738-3.283 26.952-0.864 2.188-1.958 4.319-2.995 6.277-0.058 0.058-0.058 0.115-0.115 0.23l-0.288 0.576c-1.037 1.843-2.016 3.628-3.052 4.953l-0.115 0.115c-1.382 1.843-2.822 3.628-4.319 5.241-1.613 1.843-3.052 3.167-4.434 4.262-4.146 3.283-7.084 5.183-10.078 6.508-3.571 1.613-7.141 2.822-10.654 3.513l-4.665 0.921 0.518 4.722c0.403 3.571 0.346 7.371-0.115 11.23-0.346 3.283-1.267 6.623-2.937 11.23 0 0.058-0.058 0.173-0.058 0.23-2.995 7.659-8.063 14.801-14.57 20.617-3.513 3.225-7.429 5.644-10.481 7.371-0.058 0.058-0.173 0.058-0.23 0.115-3.167 1.728-6.738 3.11-11.172 4.434-3.11 0.921-6.68 1.44-11.23 1.613-0.058 0-0.115 0-0.173 0-0.576 0-1.152 0-1.728 0-0.921 0-2.246 0-3.571-0.173-1.843-0.173-3.686-0.461-5.413-0.864l-5.010-1.094-1.152 5.010c-3.283 14.455-14.513 27.585-29.313 34.323-7.256 3.283-14.858 4.953-22.575 4.953-7.89 0-15.607-1.785-22.23-5.241l-4.607-2.361-2.361 4.55c-6.968 13.418-20.387 23.266-35.821 26.434-3.743 0.749-7.544 1.152-11.345 1.152-11.921 0-23.266-3.859-31.962-10.942l-4.089-3.283-3.225 4.146c-2.188 2.764-4.78 5.356-7.602 7.544-2.822 2.246-5.932 4.204-9.272 5.874-0.115 0.058-0.23 0.115-0.346 0.173-7.487 3.455-15.088 5.241-22.633 5.241-0.288 0-1.267 0-1.67 0-7.084 0-14.282-1.555-21.423-4.55-0.115-0.058-0.23-0.115-0.346-0.173-3.34-1.555-6.565-3.455-9.445-5.586-2.937-2.131-5.529-4.55-7.832-7.256l-3.398-4.031-3.974 3.455c-8.926 7.775-20.847 12.094-33.517 12.094-3.11 0-6.277-0.288-9.387-0.806-15.549-2.592-29.313-11.979-36.742-25.051l-2.534-4.492-4.492 2.534c-7.199 4.031-15.549 6.162-24.245 6.162-6.911 0-13.706-1.325-20.272-3.974-0.058 0-0.115-0.058-0.173-0.058-3.974-1.67-7.602-3.628-10.712-5.759-0.058-0.058-0.173-0.115-0.23-0.173-3.167-2.304-6.104-4.838-8.696-7.602-0.058-0.115-0.173-0.173-0.23-0.288-5.298-5.989-8.869-12.382-10.769-19.062l-1.382-4.895-4.953 1.325c-3.801 0.979-7.371 1.555-10.712 1.613-0.058 0-0.115 0-0.173 0h-0.806c-3.398 0-6.968-0.346-10.481-0.979-0.058 0-0.173-0.058-0.23-0.058-3.571-0.749-7.256-2.016-11.345-3.801-3.283-1.497-6.796-3.628-10.827-6.623-0.058-0.058-0.115-0.115-0.23-0.173-2.937-2.304-5.874-5.241-8.926-8.869-0.058-0.115-0.173-0.173-0.23-0.288-2.304-2.937-4.434-6.335-6.335-10.136-0.058-0.115-0.115-0.23-0.173-0.346-3.34-7.256-4.895-14.858-4.492-21.884l0.288-4.953-4.953-0.461c-1.728-0.173-3.513-0.403-5.241-0.806-0.115 0-0.23-0.058-0.346-0.058-1.555-0.346-3.225-0.921-5.068-1.555-4.204-1.613-7.659-3.34-10.366-5.356l-0.115-0.115c-4.031-2.822-7.026-5.529-9.387-8.35l-0.173-0.173c-1.382-1.613-2.764-3.34-4.031-5.125-0.115-0.173-0.23-0.346-0.346-0.518-1.094-1.728-2.188-3.686-3.34-5.874-4.089-7.832-6.22-17.047-6.047-26.146 0.115-3.628 0.749-7.717 1.9-12.036 0-0.115 0.058-0.173 0.058-0.288 0.979-3.283 2.592-6.68 4.665-10.136l2.476-3.974-3.686-2.822c-9.733-7.487-19.868-24.188-16.413-46.532 0.058-0.173 0.058-0.346 0.115-0.576 0.518-2.476 1.152-5.010 1.958-7.544l0.23-0.749c0.403-1.325 0.576-1.9 0.921-2.649 0.518-1.267 1.094-2.476 1.67-3.571 1.094-2.131 2.246-4.377 3.571-6.392 0.058-0.115 0.173-0.23 0.23-0.346 1.382-1.958 2.937-3.859 4.492-5.586l0.403-0.461c0.691-0.749 1.209-1.325 1.728-1.843 0.115-0.115 0.173-0.173 0.288-0.288 0.864-0.749 1.728-1.497 2.592-2.131 1.67-1.325 3.34-2.534 5.068-3.571 0.23-0.115 0.403-0.23 0.633-0.346 3.513-1.9 7.141-3.283 10.827-4.031l4.089-0.921-0.058-4.204c-0.058-3.916 0.461-7.947 1.44-11.576 0.058-0.115 0.058-0.288 0.115-0.403 0.633-1.958 1.382-3.916 2.246-5.817 0.403-0.921 0.864-1.843 1.325-2.764 0.115-0.173 0.173-0.346 0.288-0.518 0.461-0.864 1.037-1.67 1.555-2.534 1.209-1.9 2.592-3.743 4.031-5.586 0.115-0.115 0.173-0.23 0.288-0.346 1.267-1.44 2.707-2.937 4.78-4.838 0.921-0.864 1.843-1.67 2.764-2.419 0.749-0.633 1.44-1.094 2.016-1.497l0.749-0.518c1.958-1.325 3.974-2.592 6.047-3.743 0.173-0.115 0.288-0.173 0.461-0.23 7.947-3.916 16.183-6.047 23.842-6.047 0.461 0 0.864 0 1.44 0 2.016 0.058 3.974 0.173 5.874 0.403 0.058 0 0.173 0 0.23 0.058 1.958 0.288 3.974 0.806 5.356 1.209 3.974 1.094 7.256 2.476 10.078 4.089l4.434 2.649 2.649-4.434c7.487-12.67 21.999-21.884 37.721-24.072 2.534-0.346 5.125-0.518 7.717-0.518 12.785 0 24.994 4.55 34.323 12.785l3.974 3.513 3.398-4.031c9.502-11.23 23.669-17.968 38.988-18.486 0.691 0 1.44 0 2.131 0-3.916-7.544-6.047-16.010-6.047-24.879 0-26.203 18.774-48.087 43.595-52.925 2.534-48.030 31.329-91.855 74.809-113.048l38.815-18.947c13.246-6.392 21.481-19.235 21.481-33.46 0-19.696 16.010-35.706 35.706-35.706h12.842c19.696 0 35.706 16.010 35.706 35.706 0 28.392-10.251 55.574-27.931 76.997 3.225-0.23 6.45-0.346 9.675-0.346 1.9 0 3.801 0.058 5.701 0.115 73.599 3.052 131.189 63.233 131.189 136.948 0 5.817-4.722 10.539-10.539 10.539 0 0 0 0 0 0-5.817 0-10.539-4.722-10.539-10.539 0.058-62.369-48.721-113.279-110.975-115.87-19.293-0.806-38.527 3.167-55.689 11.576l-38.527 18.774c-13.361 6.508-22.921 18.832-26.261 32.941 0.115 0 0.173 0 0.288 0 8.293 0.633 15.664 2.764 21.942 6.162 6.623 3.571 12.209 8.235 16.528 13.764l3.225 4.146 4.089-3.283c5.471-4.377 12.094-7.659 19.12-9.617 0.115-0.058 0.23-0.058 0.346-0.115 4.434-1.037 8.869-1.555 13.303-1.555 3.225 0 6.508 0.288 9.502 0.806 0.058 0 0.115 0 0.115 0 8.35 1.613 15.722 4.665 21.711 8.984 3.11 2.188 5.932 4.607 8.293 7.199 0.058 0.058 0.115 0.115 0.173 0.173 2.419 2.707 4.55 5.644 6.277 8.696l2.534 4.434 4.492-2.476c3.455-1.958 6.796-3.34 9.963-4.262 3.571-0.979 7.371-1.613 11.172-1.843h0.173c3.398-0.288 7.199-0.058 11.748 0.749 4.607 0.806 8.408 1.958 11.979 3.571l0.288 0.115c15.607 6.68 27.528 20.444 30.407 35.13l0.921 4.838 4.838-0.691c1.67-0.23 3.455-0.461 5.413-0.461v0c1.843 0 3.801 0.173 5.759 0.403s3.974 0.633 5.932 1.094c1.843 0.461 3.801 1.267 5.586 1.958 0.058 0 0.115 0.058 0.115 0.058 1.958 0.806 3.916 1.728 5.874 2.764 0.058 0.058 0.115 0.058 0.23 0.115 1.728 0.979 3.398 2.188 5.298 3.571 0.058 0.058 0.115 0.115 0.173 0.115 1.67 1.267 3.513 2.707 5.125 4.319 0.058 0.058 0.115 0.115 0.173 0.173 1.67 1.728 3.34 3.571 4.838 5.471 0.691 0.864 1.325 1.67 1.958 2.534 0.115 0.173 0.288 0.403 0.403 0.576 0.576 0.921 1.152 1.843 1.67 2.764 1.152 1.958 2.246 4.031 3.167 6.047 0.058 0.173 0.173 0.346 0.23 0.576 1.728 4.262 2.879 8.408 3.513 12.267 0 0.173 0.058 0.346 0.058 0.518 0.403 3.398 0.749 7.89 0.173 11.979-0.633 4.319-1.555 7.947-2.822 10.942l-1.9 4.377 4.204 2.246c3.225 1.728 6.277 3.801 9.099 6.335 0.115 0.115 0.23 0.173 0.288 0.288 2.995 2.822 5.529 5.817 7.602 8.984 4.665 7.256 7.717 15.78 8.581 23.957v0.173c1.152 8.523 0.23 16.759-2.592 24.648zM561.729 248.481l38.527-18.774c0 0 0.058 0 0.058 0 34.784-16.759 57.244-52.234 57.244-90.416 0-8.063-6.565-14.628-14.628-14.628h-12.842c-8.063 0-14.628 6.565-14.628 14.628 0 22.46-12.785 42.559-33.46 52.464l-38.7 18.889c-36.281 17.68-60.469 54.192-62.945 94.217 0.806 0.173 1.67 0.346 2.476 0.518 5.644 1.44 9.042 7.141 7.659 12.785-1.44 5.644-7.141 9.042-12.785 7.659-2.649-0.691-5.356-0.979-8.063-0.979-18.083 0-32.826 14.743-32.826 32.826 0 6.22 1.728 12.151 4.895 17.219 8.063-18.486 25.339-31.847 45.496-34.727l3.283-0.461 0.979-3.167c2.592-8.638 7.544-16.471 14.282-22.633 5.068-4.607 11-8.178 17.104-10.366 2.649-23.497 17.392-44.517 38.873-55.056zM818.060 492.027l-0.058-0.346c-0.518-5.010-2.419-10.251-5.298-14.685-1.094-1.67-2.592-3.455-4.377-5.125-1.555-1.325-3.167-2.476-4.838-3.34l-10.596-5.586c-0.288 0-0.633 0.058-0.921 0.058h-18.313c-12.209 0-22.114 9.905-22.114 22.114 0 23.842-19.408 43.192-43.192 43.192h-1.555c-23.842 0-43.192-19.408-43.192-43.192 0-10.827-8.811-19.638-19.638-19.638-12.209 0-22.114 9.905-22.114 22.114v9.214c0 5.817-4.722 10.539-10.539 10.539s-10.539-4.722-10.539-10.539v-9.214c0-23.842 19.408-43.192 43.192-43.192 22.46 0 40.716 18.256 40.716 40.716 0 12.209 9.905 22.114 22.114 22.114h1.555c12.209 0 22.114-9.905 22.114-22.114 0-23.842 19.408-43.192 43.192-43.192h14.973l2.937-6.911c0.576-1.267 0.979-3.167 1.325-5.586 0.173-1.267 0.115-3.398-0.23-6.392-0.403-2.188-1.094-4.607-2.131-7.256-0.691-1.382-1.382-2.764-2.188-4.146-0.346-0.576-0.691-1.152-1.094-1.785-0.403-0.518-0.806-1.037-1.209-1.555-1.094-1.382-2.246-2.707-3.455-3.916-0.691-0.691-1.958-1.67-3.052-2.476-0.864-0.633-2.188-1.613-2.937-2.073-1.267-0.691-2.592-1.325-3.801-1.785-0.749-0.288-2.188-0.864-2.592-0.979-1.267-0.288-2.476-0.518-3.686-0.691-1.152-0.173-2.246-0.23-3.225-0.23-0.461 0-1.9 0.173-2.304 0.288l-14.743 2.073c-5.529 0.806-10.769-2.937-11.806-8.408l-2.879-14.628c-1.555-7.89-8.811-15.895-18.026-19.811-0.058 0-0.115-0.058-0.115-0.058l-0.403-0.173c-0.058 0-0.115-0.058-0.115-0.058-1.9-0.864-4.089-1.497-6.911-2.016-2.188-0.403-3.916-0.576-5.356-0.576-0.346 0-0.691 0-1.152 0.058h-0.403c-2.419 0.173-4.78 0.518-6.911 1.152-1.037 0.288-2.764 0.921-5.356 2.361l-13.591 7.544c-5.068 2.822-11.403 1.037-14.282-3.974l-7.717-13.476c-0.979-1.728-2.246-3.455-3.628-5.068-1.382-1.497-3.11-2.937-5.068-4.319-3.571-2.592-8.12-4.434-13.418-5.471-4.262-0.749-9.157-0.633-13.937 0.461-4.262 1.209-8.178 3.167-11.403 5.759l-7.084 5.644c0.058 0.346 0.058 0.691 0.058 1.037v1.555c0 23.842-19.408 43.192-43.192 43.192-10.827 0-19.638 8.811-19.638 19.638 0 12.209 9.905 22.114 22.114 22.114h9.214c5.817 0 10.539 4.722 10.539 10.539s-4.722 10.539-10.539 10.539h-9.214c-23.842 0-43.192-19.408-43.192-43.192 0-22.46 18.256-40.716 40.716-40.716 12.209 0 22.114-9.905 22.114-22.114v-1.094l-8.984-11.518c-2.534-3.225-5.874-5.989-9.963-8.235-3.686-2.016-8.293-3.283-13.534-3.686-2.649-0.23-5.413 0-8.293 0.576-0.058 0-0.115 0-0.115 0.058-1.555 0.346-3.167 0.749-4.78 1.325-3.628 1.209-7.199 3.398-10.251 6.162-3.916 3.571-6.796 8.12-8.35 13.13l-2.879 9.617c-1.209 3.916-4.55 6.796-8.581 7.371l-9.905 1.382c-14.167 2.016-26.146 12.151-30.522 25.8l-4.377 13.706c-1.44 4.434-5.529 7.314-10.021 7.314-0.749 0-1.555-0.058-2.361-0.288l-14.052-3.167c-2.764-0.633-5.644-0.864-8.466-0.806-9.33 0.288-17.91 4.319-23.554 11l-10.366 12.267c-1.843 2.188-4.434 3.513-7.256 3.686-2.822 0.23-5.644-0.749-7.717-2.592l-12.036-10.596c-6.623-5.817-15.722-8.466-25.167-7.141s-18.256 6.796-22.518 13.937l-8.005 13.476c-2.937 5.010-9.445 6.68-14.397 3.686l-13.476-7.947c-1.152-0.691-2.879-1.382-4.953-1.958-1.152-0.346-2.073-0.518-2.707-0.633-1.209-0.115-2.419-0.23-3.743-0.23-0.346 0-0.633 0-0.864 0-4.377 0-9.272 1.267-14.225 3.686-1.44 0.806-2.879 1.728-4.204 2.592l-0.806 0.576c-0.173 0.115-0.403 0.288-0.461 0.346-0.576 0.518-1.267 1.094-1.9 1.67-1.382 1.267-2.361 2.246-3.052 3.052-0.979 1.209-1.9 2.476-2.649 3.686-0.288 0.461-0.576 0.864-0.864 1.325-0.23 0.518-0.518 1.037-0.749 1.555-0.518 1.152-0.979 2.304-1.325 3.455-0.461 1.728-0.691 3.686-0.691 5.586l0.115 12.785c0.058 5.010-3.398 9.33-8.293 10.366l-12.439 2.764c-1.67 0.346-3.34 0.979-5.068 1.9-0.921 0.633-1.9 1.325-2.879 2.073-0.461 0.403-0.979 0.806-1.44 1.209-0.173 0.173-0.403 0.403-0.576 0.633l-0.346 0.403c-0.979 1.094-2.016 2.361-2.937 3.686-0.633 1.037-1.44 2.534-2.131 3.974-0.346 0.691-0.749 1.497-1.037 2.246-0.058 0.23-0.173 0.576-0.288 0.921l-0.23 0.691c-0.518 1.728-0.979 3.571-1.382 5.356-2.073 14.052 4.319 23.151 8.466 26.376l11.23 8.638c4.262 3.283 5.356 9.272 2.534 13.879l-7.429 12.036c-1.094 1.785-1.958 3.513-2.419 5.010-0.691 2.592-1.094 4.953-1.152 6.853-0.115 5.413 1.209 11.23 3.686 15.895 0.806 1.555 1.555 2.879 2.246 3.974 0.864 1.209 1.785 2.361 2.764 3.513l0.288 0.346c1.209 1.44 2.937 2.937 5.471 4.722l0.288 0.23c1.209 0.864 3.052 1.785 5.356 2.649 0.979 0.346 1.785 0.633 2.534 0.806 0.921 0.173 1.9 0.346 2.764 0.403l15.031 1.382c5.644 0.518 9.848 5.413 9.56 11.057l-0.806 15.088c-0.173 3.628 0.691 7.717 2.534 11.863 1.209 2.361 2.534 4.492 3.859 6.22 2.016 2.419 3.859 4.262 5.644 5.644 2.707 2.016 5.010 3.455 6.738 4.204 2.592 1.152 4.953 1.958 7.026 2.419 2.188 0.403 4.377 0.633 6.335 0.633h0.633c1.152-0.058 3.052-0.23 5.759-0.921l14.685-3.859c8.523-8.638 8.466-22.575-0.115-31.156-8.178-8.178-12.67-19.005-12.67-30.58s4.492-22.402 12.67-30.58l1.094-1.094c8.178-8.178 19.005-12.67 30.58-12.67s22.402 4.492 30.58 12.67c7.659 7.659 20.099 7.659 27.758 0 8.638-8.638 8.638-22.69 0-31.329l-6.68-6.68c-4.089-4.089-4.089-10.769 0-14.916 2.073-2.073 4.78-3.11 7.429-3.11 2.707 0 5.413 1.037 7.429 3.11l6.508 6.508c16.874 16.874 16.874 44.286 0 61.103-15.895 15.895-41.695 15.895-57.532 0-4.146-4.146-9.733-6.45-15.607-6.45-5.932 0-11.46 2.304-15.664 6.508l-1.094 1.094c-4.204 4.204-6.508 9.733-6.508 15.664s2.304 11.46 6.508 15.664c16.701 16.701 16.816 43.826 0.403 60.699l2.131 7.602c0.979 3.513 3.052 7.084 6.104 10.596 1.613 1.728 3.455 3.283 5.471 4.78 1.958 1.325 4.262 2.534 6.911 3.686 3.974 1.613 8.12 2.419 12.324 2.419 5.068 0 9.905-1.209 13.937-3.455l13.591-7.602c5.068-2.822 11.46-1.037 14.282 3.974l7.717 13.534c4.319 7.602 12.555 13.13 21.884 14.685 1.958 0.346 3.916 0.518 5.874 0.518 7.602 0 14.57-2.476 19.696-6.911l8.293-7.256c0-0.058 0-0.115 0-0.23v-32.653c0-23.842 19.408-43.192 43.192-43.192 12.209 0 22.114-9.905 22.114-22.114v-1.555c0-12.209-9.905-22.114-22.114-22.114-22.46 0-40.716-18.256-40.716-40.716 0-23.842 19.408-43.192 43.192-43.192h9.214c5.817 0 10.539 4.722 10.539 10.539s-4.722 10.539-10.539 10.539h-9.214c-12.209 0-22.114 9.905-22.114 22.114 0 10.827 8.811 19.638 19.638 19.638 23.842 0 43.192 19.408 43.192 43.192v1.555c0 23.842-19.408 43.192-43.192 43.192-12.209 0-22.114 9.905-22.114 22.114v32.596c0 0.288 0 0.576-0.058 0.864l7.947 9.445c1.209 1.382 2.592 2.707 4.146 3.859 1.785 1.325 3.686 2.476 5.759 3.455 4.492 1.843 8.869 2.822 13.015 2.822 0.346 0 1.325 0 1.325 0 0.058 0 0.115 0 0.173 0 4.434 0 9.099-1.094 13.764-3.225 2.016-1.037 3.916-2.246 5.644-3.628 1.555-1.209 2.879-2.534 4.031-3.974l9.848-12.555c1.728-2.246 4.319-3.628 7.141-3.974 2.822-0.288 5.644 0.518 7.832 2.304l12.382 10.078c6.565 5.356 16.183 7.429 25.8 5.471 9.33-1.9 17.277-7.659 21.366-15.492l7.199-13.879c2.649-5.125 8.984-7.199 14.167-4.55l13.937 7.141c3.686 1.9 8.005 2.879 12.612 2.879 4.722 0 9.387-1.037 13.821-3.052 8.811-3.974 15.664-11.806 17.507-19.811l1.267-5.586c-7.371-3.283-13.764-8.638-18.371-15.722-6.392-9.675-8.754-21.251-6.68-32.596 0.921-5.183-0.173-10.366-3.167-14.685s-7.487-7.199-12.612-8.12c-5.817-1.037-11.691 0.23-16.586 3.571-4.838 3.34-8.12 8.408-9.214 14.225l-1.67 9.042c-1.037 5.701-6.508 9.502-12.267 8.466-5.701-1.037-9.502-6.508-8.466-12.267l1.67-9.042c2.073-11.345 8.466-21.193 17.91-27.758 7.314-5.068 15.78-7.659 24.476-7.659 2.592 0 5.241 0.23 7.832 0.691 10.712 1.958 19.984 7.947 26.146 16.874s8.523 19.753 6.565 30.465c-1.094 5.874 0.23 12.151 3.571 17.219s8.293 8.408 13.937 9.445c0.115 0 0.288 0.058 0.403 0.115 0.346 0.058 0.749 0.115 1.094 0.173l15.204 3.283c0.979 0.23 2.073 0.403 2.995 0.461 0.058 0 0.576 0.058 1.555 0.058 0.346 0 0.691 0 1.037 0 2.707-0.115 4.722-0.403 6.162-0.806 2.937-0.864 5.125-1.67 6.911-2.649 1.958-1.152 4.722-2.822 6.738-4.665 4.089-3.686 7.256-8.063 9.042-12.612 1.037-2.822 1.555-4.722 1.728-6.277 0.288-2.361 0.288-4.434 0.115-6.45l-1.613-14.34c-0.576-5.471 3.052-10.424 8.466-11.518l14.167-2.764c1.9-0.403 3.916-1.037 6.047-2.016 1.325-0.576 3.052-1.785 5.701-3.859 0.461-0.346 1.037-0.921 1.843-1.843 1.094-1.209 2.131-2.419 3.167-3.801l0.115-0.173c0.288-0.403 0.979-1.67 1.44-2.476l0.23-0.461c0.691-1.325 1.44-2.822 1.843-3.801 2.131-5.701 2.879-11.518 2.131-16.413-0.23-1.497-0.461-2.879-0.806-4.262-0.115-0.461-0.691-1.785-0.921-2.419-0.921-2.073-1.67-3.455-2.361-4.204l-9.502-11.057c-3.571-4.204-3.34-10.424 0.576-14.34l10.366-10.309c0.691-0.691 1.325-1.44 1.958-2.246 0.288-0.403 0.633-0.806 0.921-1.209l1.44-2.131c1.267-2.016 2.188-3.916 2.879-5.701 1.728-4.895 2.304-9.848 1.67-14.973z" />
<glyph unicode="&#xe92a;" glyph-name="Phone" horiz-adv-x="2086" d="M533.948 743.241c4.756 2.038 5.572 6.659 6.931 11.008 2.99 8.562 5.708 17.259 9.377 25.413 14.949 33.295 20.113 34.247 45.798 8.562 69.173-69.173 138.209-138.481 207.654-207.246 8.698-8.562 10.872-16.444 8.29-28.539-8.562-39.411-0.272-74.88 27.452-105.458 64.96-71.619 132.366-140.792 204.936-204.8 30.034-26.5 64.96-33.159 102.876-25.141 11.959 2.446 19.841 0.679 28.539-8.154 71.347-71.755 143.374-142.966 214.992-214.449 16.58-16.444 15.628-19.298-3.805-32.888-15.085-10.464-34.111-11.823-48.652-22.695-42.944 0-86.024 0-128.968 0 0.272 3.397-1.359 5.164-4.621 5.708-95.401 17.123-176.669 64.008-253.588 119.999-118.368 86.16-219.205 189.851-303.599 309.578-51.234 72.706-92.819 149.761-107.904 238.911-0.544 3.397-2.31 4.892-5.708 4.756 0 41.721 0 83.578 0 125.435zM1552.104 118.784c-19.705-10.872-32.208-29.762-48.516-44.439-13.726-12.503-26.636-26.093-39.275-39.818-9.377-10.328-16.58-11.959-27.588-0.815-62.242 63.057-125.299 125.571-188.084 188.22-9.241 9.241-18.346 18.482-27.452 27.588-5.572 5.708-6.795 10.736-0.136 17.123 26.636 25.957 52.593 52.865 79.637 78.414 24.054 22.831 42.536 21.88 66.047-1.631 56.806-56.67 113.476-113.612 170.282-170.282 4.756-4.756 10.057-9.105 15.085-13.726 0-13.454 0-27.044 0-40.634zM757.909 957.146c5.3-12.367 15.9-20.249 24.87-29.354 51.37-51.642 103.012-103.012 154.381-154.653 25.821-25.957 25.277-45.254-0.544-70.803-24.87-24.598-49.331-49.603-73.386-75.016-7.067-7.474-11.823-7.882-19.162-0.408-72.434 72.842-145.004 145.548-217.71 217.982-7.746 7.746-7.882 13.318 0 21.064 25.005 24.462 49.467 49.331 74.201 74.201 5.164 5.164 11.551 9.377 13.318 16.987 14.677 0 29.354 0 44.031 0z" />
<glyph unicode="&#xe92b;" horiz-adv-x="1071" d="M1032.178 447.165c0-273.435-221.663-495.097-495.097-495.097s-495.097 221.663-495.097 495.097c0 273.435 221.663 495.097 495.097 495.097s495.097-221.663 495.097-495.097z" />
<glyph unicode="&#xe92c;" horiz-adv-x="1071" d="M894.078 686.45c-1.555 3.801-5.241 6.277-9.33 6.277h-65.479v65.479c0 4.089-2.476 7.775-6.277 9.33s-8.12 0.691-11.057-2.188l-75.615-75.615c-1.9-1.9-2.995-4.492-2.995-7.141v-71.411l-223.793-223.851c-3.974-3.974-3.974-10.366 0-14.34 1.958-1.958 4.55-2.995 7.141-2.995s5.183 0.979 7.141 2.995l13.994 13.994c0.691-2.188 1.094-4.492 1.094-6.853 0-12.267-10.021-22.287-22.287-22.287s-22.287 10.021-22.287 22.287c0 5.586-4.55 10.136-10.136 10.136s-10.136-4.55-10.136-10.136c0-23.439 19.062-42.501 42.559-42.501 23.439 0 42.501 19.062 42.501 42.501 0 7.832-2.131 15.434-6.162 22.057l16.528 16.528c8.12-11.172 12.612-24.591 12.612-38.585 0-36.109-29.371-65.479-65.479-65.479s-65.479 29.371-65.479 65.479c0 36.109 29.371 65.479 65.479 65.479 5.125 0 10.251-0.576 15.146-1.785 5.413-1.267 10.884 2.073 12.209 7.487 1.267 5.471-2.073 10.884-7.544 12.209-6.45 1.555-13.13 2.304-19.811 2.304-47.281 0-85.751-38.47-85.751-85.751s38.47-85.751 85.751-85.751c47.281 0 85.751 38.47 85.751 85.751 0 19.408-6.508 37.952-18.371 53.040l31.674 31.617c20.214-23.612 31.271-53.386 31.271-84.657 0-71.814-58.453-130.268-130.268-130.268s-130.268 58.453-130.268 130.268c0 71.814 58.453 130.268 130.268 130.268 22.46 0 44.574-5.817 63.982-16.759 4.895-2.764 11.057-1.037 13.821 3.859 2.764 4.838 1.037 11.057-3.859 13.821-22.46 12.67-48.030 19.408-73.945 19.408-82.987 0-150.539-67.553-150.539-150.539s67.495-150.539 150.539-150.539c82.987 0 150.539 67.553 150.539 150.539 0 36.685-13.13 71.584-37.145 99.054l16.24 16.24c28.334-31.789 43.883-72.332 43.883-115.294 0-95.656-77.803-173.46-173.46-173.46s-173.46 77.803-173.46 173.46c0 95.656 77.803 173.46 173.46 173.46 32.538 0 64.27-9.099 91.798-26.261 4.722-2.937 11-1.497 13.937 3.225 2.995 4.722 1.497 11-3.225 13.937-30.695 19.177-66.113 29.313-102.509 29.313-106.829 0-193.731-86.903-193.731-193.731s86.903-193.731 193.731-193.731 193.731 86.903 193.731 193.731c0 48.318-17.622 93.986-49.757 129.634l31.501 31.559c40.543-44.114 62.773-101.070 62.773-161.193 0-131.419-106.886-238.248-238.248-238.248s-238.248 106.886-238.248 238.248c0 131.362 106.886 238.248 238.248 238.248 48.202 0 94.62-14.34 134.299-41.407 4.607-3.167 10.942-1.958 14.052 2.649 3.167 4.607 1.958 10.942-2.649 14.052-43.019 29.428-93.41 44.977-145.702 44.977-142.534 0-258.52-115.985-258.52-258.52s115.985-258.52 258.52-258.52c142.534 0 258.52 115.985 258.52 258.52 0 65.479-24.36 127.618-68.704 175.533l16.24 16.24c48.721-52.234 75.442-120.017 75.442-191.716 0-155.204-126.294-281.498-281.498-281.498s-281.498 126.294-281.498 281.498c0 155.204 126.294 281.498 281.498 281.498 60.527 0 118.231-18.947 166.779-54.71 4.492-3.34 10.827-2.361 14.167 2.131s2.361 10.827-2.131 14.167c-52.061 38.355-113.912 58.684-178.816 58.684-80.625 0-156.356-31.386-213.369-88.4s-88.342-132.744-88.342-213.369 31.386-156.356 88.342-213.369c57.014-57.014 132.744-88.4 213.369-88.4 80.568 0 156.356 31.386 213.369 88.4s88.4 132.744 88.4 213.369c0 77.17-28.852 149.963-81.374 206.055l10.596 10.596h71.411c2.707 0 5.241 1.094 7.141 2.995l75.615 75.615c2.879 2.937 3.743 7.314 2.188 11.057v0zM804.929 617.112h-46.935l25.915 25.915c3.974 3.974 3.974 10.366 0 14.34s-10.366 3.974-14.34 0l-25.915-25.915v46.935l55.344 55.344v-51.14c0-5.586 4.55-10.136 10.136-10.136h51.14l-55.344-55.344z" />
</font>
</defs>
</svg>
